<svg height="80" viewBox="0 0 95 80" width="95" xmlns="http://www.w3.org/2000/svg" xmlns:xlink="http://www.w3.org/1999/xlink"><linearGradient id="a"><stop offset="0" stop-color="#808080" stop-opacity=".25"/><stop offset=".54" stop-color="#808080" stop-opacity=".12"/><stop offset="1" stop-color="#808080" stop-opacity=".1"/></linearGradient><linearGradient id="b" x1="49.999%" x2="49.999%" xlink:href="#a" y1="100%" y2="0%"/><linearGradient id="c" x1="50%" x2="50%" xlink:href="#a" y1="99.997%" y2="-.001%"/><linearGradient id="d" x1="22.156%" x2="60.601%" xlink:href="#a" y1="62.997%" y2="37.036%"/><linearGradient id="e" x1="49.918%" x2="49.934%" xlink:href="#a" y1="100.017%" y2=".017%"/><linearGradient id="f" x1="49.954%" x2="49.957%" xlink:href="#a" y1="100.028%" y2=".028%"/><g fill="none" fill-rule="evenodd"><path d="m49.893 46.712c-3.462-7.058-.692-13.19 4.159-17.472 6.698-3.124 13.281-1.734 18.132 4.513 3.165-1.854 7.195-2.255 10.51-1.505 2.557-9.647.162-21.22-8.374-27.458-11.104-8.114-26.67-5.672-34.77 5.452-11.103-8.114-26.674-5.673-34.769 5.451-8.094 11.124-5.662 26.72 5.442 34.834l40.21 29.382 10.663-14.8z" fill="url(#b)"/><path d="m49.31 46.644c-3.706-6.35-1.572-14.505 4.765-18.217 6.338-3.712 14.478-1.574 18.183 4.775a13.222 13.222 0 0 1 9.63-1.491c2.446-9.226-.817-19.418-8.98-25.381-10.616-7.758-25.499-5.42-33.242 5.21-10.612-7.75-25.492-5.416-33.238 5.217s-5.41 25.545 5.202 33.303l38.445 28.094 9.778-13.432z" fill="#6c63ff"/><path d="m72.336 34.719c-3.466-5.942-11.083-7.943-17.013-4.47-5.93 3.472-7.928 11.103-4.462 17.044l12.551 21.517 21.476-12.575c5.93-3.472 7.928-11.104 4.462-17.045s-11.083-7.943-17.014-4.47z" fill="url(#c)"/><path d="m72.232 35.114c-3.306-5.665-10.57-7.573-16.225-4.26-5.655 3.312-7.559 10.59-4.253 16.255l11.967 20.516 20.479-11.99a11.885 11.885 0 0 0 5.876-10.32 11.885 11.885 0 0 0 -5.984-10.258 11.84 11.84 0 0 0 -11.859.063v-.006z" fill="#e53935"/><path d="m71.25 50.505 12.322 23.197 2.541-9.044z" fill="url(#d)"/><path d="m.054.099 12.322 23.196 2.542-9.044z" fill="url(#e)" opacity=".2" transform="translate(71.196 50.407)"/><path d="m71.25 50.505 23.75 11.151-8.887 3.002z" fill="url(#f)"/><path d="m72.015 51.234 11.277 21.23 2.326-8.278z" fill="#6c63ff"/><path d="m72.015 51.234 11.277 21.23 2.326-8.278z" fill="#000" opacity=".2"/><path d="m72.015 51.234 21.736 10.206-8.133 2.746z" fill="#6c63ff"/><path d="m39.71 11.553-.01-.046-.03.041c-10.615-7.758-25.495-5.424-33.241 5.209-6.763 9.289-5.844 21.84 1.572 30.036zm44.273 44.186c5.663-3.298 7.585-10.571 4.293-16.245-3.292-5.673-10.552-7.599-16.214-4.3l11.793 20.618z" fill="#000" opacity=".2"/></g></svg>