<svg height="80" viewBox="0 0 111 80" width="111" xmlns="http://www.w3.org/2000/svg" xmlns:xlink="http://www.w3.org/1999/xlink"><linearGradient id="a"><stop offset="0" stop-color="#808080" stop-opacity=".25"/><stop offset=".54" stop-color="#808080" stop-opacity=".12"/><stop offset="1" stop-color="#808080" stop-opacity=".1"/></linearGradient><linearGradient id="b" x1="50%" x2="50%" xlink:href="#a" y1="100%" y2=".036%"/><linearGradient id="c" x1="50%" x2="50%" xlink:href="#a" y1="99.957%" y2="0%"/><linearGradient id="d" x1="49.993%" x2="49.993%" xlink:href="#a" y1="100.005%" y2="-.002%"/><linearGradient id="e"><stop offset="0" stop-color="#e0e0e0"/><stop offset=".31" stop-color="#fccc63"/><stop offset=".77" stop-color="#f55f44"/></linearGradient><linearGradient id="f" x1="50.021%" x2="50.021%" xlink:href="#e" y1="0%" y2="100%"/><linearGradient id="g" x1="50%" x2="50%" xlink:href="#e" y1="0%" y2="100%"/><linearGradient id="h" x1="49.972%" x2="49.972%" xlink:href="#a" y1="99.913%" y2="-.087%"/><linearGradient id="i" x1="50.289%" x2="50.289%" xlink:href="#a" y1="99.999%" y2=".187%"/><g fill="none" fill-rule="evenodd"><path d="m96.844 69.532c-.9.078-1.806.066-2.704-.036-9.872-1.097-23.315-.785-34.273 6.042-15.156 9.44-38.907 1.358-49.384-3.038-8.005-3.358-12.161-11.583-9.665-19.303.035-.11.071-.218.11-.327 1.57-4.588 4.67-8.179 8.51-10.082 3.347-1.66 8.233-5.123 10.407-11.78.898-2.748 2.13-5.333 3.73-7.587 4.285-6.036 13.255-15.024 28.683-14.968 2.705.013 5.39.47 7.948 1.352 5.635 1.931 10.726 5.856 14.607 11.298 2.477 3.471 6.189 6.698 11.502 6.96 7.375.368 14.413 3.82 19.692 9.964.153.177.303.354.453.534 9.4 11.26 2.872 29.874-9.615 30.971z" fill="#6c63ff"/><ellipse cx="1.412" cy="1.405" fill="url(#b)" opacity=".7" rx="1.347" ry="1.355" transform="translate(25.773 65.669)"/><ellipse cx="27.185" cy="67.073" fill="#000" opacity=".2" rx="1.287" ry="1.294"/><g fill="#fff"><ellipse cx="19.926" cy="40.652" rx="1" ry="1"/><ellipse cx="55.462" cy="69.707" rx="1" ry="1"/><ellipse cx="34.472" cy="72.259" rx="1" ry="1"/><ellipse cx="96.074" cy="58.713" rx="1" ry="1"/><ellipse cx="80.161" cy="33.584" rx="1" ry="1"/><ellipse cx="102.713" cy="45.854" rx="1" ry="1"/><ellipse cx="28.713" cy="24.259" rx="1" ry="1"/><path d="m15.028 58.131h-.443v-.446h-.18v.446h-.444v.182h.444v.444h.18v-.444h.443zm11.13-.196h-.443v-.446h-.181v.446h-.443v.181h.443v.445h.18v-.445h.444zm15.912 9.03h-.443v-.445h-.18v.445h-.443v.182h.443v.445h.18v-.445h.444zm22.165-54.135h-.203v-.203h-.082v.203h-.202v.083h.202v.203h.082v-.203h.203zm28.799 18.65h-.202v-.202h-.082v.203h-.202v.082h.202v.203h.082v-.203h.202zm-16.987 12.173h-.202v-.204h-.082v.204h-.202v.082h.202v.203h.082v-.203h.202zm-69.119 7.656h-.202v-.203h-.082v.203h-.202v.082h.202v.204h.082v-.204h.202zm8.299 16.687h-.202v-.203h-.082v.203h-.203v.083h.203v.203h.082v-.203h.202zm26.066-52.712h-.202v-.203h-.083v.203h-.202v.083h.202v.203h.083v-.203h.202zm-12.301 29.35h-.202v-.203h-.082v.203h-.202v.083h.202v.203h.082v-.203h.202zm2.636-8.442h-.202v-.203h-.082v.203h-.202v.083h.202v.203h.082v-.203h.202z"/></g><ellipse cx="1.186" cy="1.144" fill="url(#c)" opacity=".7" rx="1.125" ry="1.131" transform="translate(71.95 53.399)"/><ellipse cx="73.136" cy="54.542" fill="#000" opacity=".2" rx="1.042" ry="1.047"/><ellipse cx="75.941" cy="61.915" fill="#000" opacity=".2" rx="1.165" ry="1.171"/><path d="m28.406 30.138a15.26 15.26 0 0 0 -1.708-7.068c-.536-1.024-1.025-1.66-1.402-2.052a.997.997 0 0 0 -1.146-.222c-.152.054-.29.143-.402.26-.508.53-.968 1.231-1.366 1.976a15.324 15.324 0 0 0 -1.794 7.264v1.52h-.97v-17.67c0-3.703-.823-7.355-2.44-10.595-.765-1.535-1.464-2.489-2-3.075a1.383 1.383 0 0 0 -2.084 0c-.727.794-1.383 1.844-1.953 2.96-1.698 3.31-2.56 7.068-2.56 10.879v17.494h-.837v-1.594a15.32 15.32 0 0 0 -1.794-7.258c-.401-.745-.86-1.446-1.366-1.976a.999.999 0 0 0 -1.172-.214l.035.018a1.05 1.05 0 0 0 -.327.23c-.376.393-.865 1.028-1.4 2.052a15.26 15.26 0 0 0 -1.71 7.068v26.405h2.992l-.33 2.17v6.491h2.446v-6.49l-.327-2.172h2.949v-24.05h.837v23.946h2.39l-.343 2.275v6.491h2.446v-6.49l-.343-2.28h3.222l-.345 2.28v6.49h2.447v-6.49l-.343-2.28h1.908v-23.937h.97v24.085h.785v-.036h2.599l-.326 2.168v6.491h2.446v-6.49l-.327-2.172h2.643z" fill="url(#d)" opacity=".7" transform="translate(37.098)"/><path d="m42.701 57.448h-2.316l.414-2.828h1.488z" fill="#535461"/><path d="m40.683 55.858h1.72l-.116-.895h-1.487z" fill="#000" opacity=".1"/><path d="m62.553 57.448h-2.315l.413-2.828h1.49z" fill="#535461"/><path d="m60.536 55.858h1.72l-.116-.895h-1.49z" fill="#000" opacity=".1"/><path d="m50.228 57.448h-2.315l.413-2.828h1.49z" fill="#535461"/><path d="m48.21 55.858h1.72l-.115-.895h-1.49z" fill="#000" opacity=".1"/><path d="m54.944 57.448h-2.316l.413-2.828h1.489z" fill="#535461"/><path d="m52.926 55.858h1.72l-.116-.895h-1.49z" fill="#000" opacity=".1"/><path d="m42.701 31.249h16.544v1h-16.544z" fill="#535461"/><path d="m61.802 20.738a.93.93 0 0 0 -1.383 0c-.481.516-.916 1.199-1.296 1.924a15.26 15.26 0 0 0 -1.698 7.068v25.603h7.322v-25.711c.01-2.392-.545-4.751-1.618-6.885-.508-.998-.971-1.622-1.327-1.999zm-20.997 0a.93.93 0 0 1 1.383 0c.482.516.917 1.199 1.297 1.924a15.271 15.271 0 0 1 1.698 7.068v25.603h-7.322v-25.711c-.01-2.392.545-4.751 1.618-6.885.507-.998.97-1.622 1.326-1.999z" fill="#e0e0e0"/><path d="m37.903 30.167 1.738.01v2.153h-1.738zm5.542 0 1.738.01v2.153h-1.738zm13.98 0 1.737.01v2.153h-1.737zm5.542 0 1.737.01v2.153h-1.737z" fill="#535461"/><path d="m43.485 22.629c-.38-.726-.815-1.408-1.297-1.924a.925.925 0 0 0 -1.106-.21c.104.053.199.124.279.21.481.516.917 1.198 1.296 1.924a15.257 15.257 0 0 1 1.698 7.067v25.602h.828v-25.6a15.27 15.27 0 0 0 -1.698-7.07zm16.3.071c.38-.726.815-1.408 1.296-1.925a.969.969 0 0 1 .32-.23.928.928 0 0 0 -1.064.23c-.482.517-.917 1.199-1.297 1.924a15.271 15.271 0 0 0 -1.698 7.068v25.606h.745v-25.604a15.26 15.26 0 0 1 1.698-7.07z" fill="#000" opacity=".1"/><path d="m41.575 63.77h-.064a1.13 1.13 0 0 1 -1.126-1.133v-5.19h2.315v5.19c0 .3-.118.588-.33.8a1.123 1.123 0 0 1 -.796.332z" fill="url(#f)"/><path d="m49.103 63.77h-.065a1.13 1.13 0 0 1 -1.125-1.133v-5.19h2.315v5.19a1.13 1.13 0 0 1 -1.125 1.132zm4.714 0h-.065a1.13 1.13 0 0 1 -1.124-1.133v-5.19h2.316v5.19a1.13 1.13 0 0 1 -1.127 1.132zm7.611 0h-.062c-.299 0-.586-.12-.798-.332-.211-.212-.33-.5-.33-.801v-5.19h2.315v5.19a1.13 1.13 0 0 1 -1.125 1.132z" fill="url(#g)"/><path d="m52.223.663a1.286 1.286 0 0 0 -1.973 0c-.684.773-1.308 1.795-1.855 2.883-1.607 3.223-2.423 6.882-2.423 10.593v41.09h10.446v-41.255c0-3.605-.781-7.166-2.308-10.317-.718-1.495-1.379-2.424-1.887-2.994z" fill="#eee"/><rect fill="#535461" height="2.512" rx="1.077" width="5.451" x="48.402" y="5.227"/><path d="m46.029 15.58h10.339v1h-10.34z" fill="#000" opacity=".1"/><path d="m74.394 30.56a3.386 3.386 0 0 0 -.997-.883 3.337 3.337 0 0 0 -3.83.338 3.382 3.382 0 0 0 -.994 3.733 3.352 3.352 0 0 0 3.147 2.218c.072 0 .143 0 .212-.008a3.35 3.35 0 0 0 2.834-1.956 3.384 3.384 0 0 0 -.37-3.436z" fill="url(#h)"/><g fill="#000"><path d="m74.887 32.59c0 1.68-1.299 3.072-2.967 3.178-.066 0-.133.007-.2.007a3.17 3.17 0 0 1 -2.98-2.096 3.197 3.197 0 0 1 .941-3.531 3.155 3.155 0 0 1 4.566.523c.416.552.641 1.226.64 1.919z" opacity=".2"/><path d="m70.94 30.569c-.164.07-.322.154-.473.25a.744.744 0 0 0 -.253.228.296.296 0 0 0 -.006.325c.077.106.226.121.357.13a.907.907 0 0 0 .408-.042.879.879 0 0 0 .238-.174l.272-.248c.098-.086.195-.205.157-.327a.293.293 0 0 0 -.231-.157.964.964 0 0 0 -.683.12" opacity=".1"/><circle cx="70.107" cy="34.124" opacity=".1" r="1"/><ellipse cx="73.192" cy="32.785" opacity=".1" rx="1" ry="1"/><path d="m74.253 30.67a.836.836 0 0 1 -.803.83.835.835 0 0 1 -.862-.767.837.837 0 0 1 .72-.902c.368.214.69.5.945.84zm.057 3.754a3.156 3.156 0 0 1 -2.39 1.344c0-.044-.006-.088-.006-.133 0-.57.32-1.091.827-1.347a1.495 1.495 0 0 1 1.568.136z" opacity=".1"/></g><path d="m31.12 48.744a2.362 2.362 0 0 0 -.698-.62 2.333 2.333 0 0 0 -2.687.223 2.364 2.364 0 0 0 -.699 2.618 2.344 2.344 0 0 0 2.215 1.546c.05 0 .097 0 .148-.004a2.343 2.343 0 0 0 1.972-1.368 2.367 2.367 0 0 0 -.254-2.395h.002z" fill="url(#i)"/><g fill="#000"><path d="m31.463 50.16a2.217 2.217 0 0 1 -2.07 2.218h-.14a2.21 2.21 0 0 1 -2.077-1.462 2.23 2.23 0 0 1 .656-2.463 2.2 2.2 0 0 1 3.184.367c.29.385.448.856.447 1.34z" opacity=".2"/><path d="m28.708 48.75a2.29 2.29 0 0 0 -.33.175.542.542 0 0 0 -.176.159.21.21 0 0 0 0 .226.314.314 0 0 0 .248.09.632.632 0 0 0 .285-.028.614.614 0 0 0 .167-.121l.19-.173c.066-.061.138-.144.109-.228a.195.195 0 0 0 -.161-.11.668.668 0 0 0 -.476.085" opacity=".1"/><circle cx="28.208" cy="51.332" opacity=".1" r="1"/><ellipse cx="30.292" cy="50.354" opacity=".1" rx="1" ry="1"/><path d="m31.017 48.822a.587.587 0 0 1 -.565.584.588.588 0 1 1 -.095-1.173c.257.15.481.35.66.589zm.043 2.618a2.203 2.203 0 0 1 -1.668.938v-.098c0-.398.224-.762.577-.94a1.043 1.043 0 0 1 1.094.095l-.004.005z" opacity=".1"/></g><path d="m81.877 52.95 2.129 1.138-1.662 1.869"/><ellipse cx="93.32" cy="42.035" fill="#fff" rx="1" ry="1"/></g></svg>