<svg height="80" viewBox="0 0 140 80" width="140" xmlns="http://www.w3.org/2000/svg" xmlns:xlink="http://www.w3.org/1999/xlink"><linearGradient id="a"><stop offset="0" stop-color="#808080" stop-opacity=".25"/><stop offset=".54" stop-color="#808080" stop-opacity=".12"/><stop offset="1" stop-color="#808080" stop-opacity=".1"/></linearGradient><linearGradient id="b" x1="49.997%" x2="49.997%" xlink:href="#a" y1="100.013%" y2=".028%"/><linearGradient id="c" x1=".017%" x2="99.997%" xlink:href="#a" y1="50.001%" y2="50.001%"/><g fill="none" fill-rule="evenodd"><path d="m84.137 57.618c2.7-.154 6.05-1.99 8.654-2.803a408.242 408.242 0 0 1 9.284-2.767 402.802 402.802 0 0 1 35.896-8.485 21.978 21.978 0 0 0 -7.24-8.72c.08-.764.121-1.532.123-2.3 0-12.146-9.68-21.992-21.623-21.992a21.232 21.232 0 0 0 -10.494 2.762c-8.454-5.576-19.488-8.952-31.56-8.952-17.154 0-32.214 6.816-40.747 17.079l40.104 6.794 24.597 4.165c-28.04.84-56.168 1.674-84.127-.296-7.612 7.386-8.949 19.14-3.191 28.055 0 .44.018.876.051 1.308.712.205 1.4.404 2.017.533a441.623 441.623 0 0 0 29.903 5.268c-7.392 4.571-16.394 5.218-24.921 7.154 4.129 3.418 9.736 5.513 15.915 5.513h92.005c9.962 0 18.037-6.955 18.037-15.536a22.115 22.115 0 0 0 2.932-8.072c-18.435 1.785-37.099.235-55.615 1.292z" fill="#6c63ff" opacity=".1"/><path d="m139.878 52.671a22.071 22.071 0 0 0 -9.285-18.06c.08-.764.12-1.532.123-2.3 0-12.146-9.684-21.988-21.624-21.988a21.244 21.244 0 0 0 -10.495 2.761c-8.453-5.579-19.487-8.954-31.56-8.954-19.637-.001-36.541 8.936-44.037 21.752a21.412 21.412 0 0 0 -1.258-.038c-11.939 0-21.622 9.846-21.622 21.992a22.163 22.163 0 0 0 3.557 12.088c0 10.928 10.285 19.787 22.967 19.787h92.007c9.96 0 18.036-6.956 18.036-15.537a22.163 22.163 0 0 0 3.19-11.503z" fill="#6c63ff" opacity=".1"/><path d="m114.258 39.198a1.359 1.359 0 0 0 -.597-.263c-.228-.052-.461-.085-.693-.122l-3.008-.435a3.533 3.533 0 0 0 -.921-.05c-.312.027-.6.177-.802.417a.627.627 0 0 0 -.139.393c.017.143.063.282.137.406.029.058.054.119.074.18.03.139.065.276.108.41.013.03.03.057.051.082v.02c-.033.17.074.346.026.509-.042.14-.177.224-.263.34a.513.513 0 0 0 -.012.565c.092.142.258.24.305.402.063.214-.106.422-.256.587a9.09 9.09 0 0 0 -.765.967.6.6 0 0 0 -.122.287c-.013.214.19.401.155.613-.028.167-.19.268-.33.368-.52.343-.937.894-.978 1.517a5.324 5.324 0 0 0 -1.183-2.695c-.174-.21-.366-.422-.438-.69-.027-.106-.032-.22-.069-.323-.122-.325-.51-.464-.68-.763-.122-.211-.122-.482-.274-.667-.151-.185-.39-.226-.52-.405a2.598 2.598 0 0 1 -.166-.378.824.824 0 0 0 -.283-.312.195.195 0 0 0 .065-.145c0-.143-.142-.237-.265-.308a7.582 7.582 0 0 1 -.465-.29 1.09 1.09 0 0 0 .416-.342c.136-.22.192-.48.159-.735a.929.929 0 0 0 -.219-.563c-.077-.082-.173-.14-.254-.218-.209-.204-.28-.507-.366-.786-.115-.368-.295-.754-.63-.949-.16-.094-.349-.138-.506-.237-.158-.1-.29-.287-.235-.467.037-.123.15-.207.227-.311a.621.621 0 0 0 -.155-.858c-.09-.057-.201-.108-.22-.213a.39.39 0 0 1 -.283-.301 1.165 1.165 0 0 1 0-.437l.094-.68c.109.045.23.045.34 0 .105.171.228.332.366.48.372.44.662.944.855 1.488.07.196.14.415.321.52.063.035.134.053.195.091.075.053.14.12.19.196l.439.584.007.029c.004.017.01.034.02.049.027.03.064.05.105.054.45.104.954.2 1.344-.047.351-.22.505-.656.803-.948.212-.207.511-.367.57-.659a2.158 2.158 0 0 1 -.21-.077c.062-.061.123-.133.206-.213.12-.119.23-.249.325-.389.103-.172.185-.356.244-.549l.709-2.02c.112-.318.225-.64.366-.95.147-.335.32-.657.48-.987.413-.857.732-1.756.95-2.683a.983.983 0 0 0 .039-.39c-.034-.212-.195-.38-.347-.53a2.548 2.548 0 0 0 -.52-.432.853.853 0 0 0 -.653-.106c-.313.092-.51.413-.582.735-.072.323-.045.655-.075.98-.044.472-.205.928-.245 1.4-.02.274 0 .55-.033.824a3.01 3.01 0 0 1 -.366 1.015 6.563 6.563 0 0 1 -1.58 1.952c-.074.063-.151.123-.224.19 0-.052.008-.106.015-.159a.956.956 0 0 0 -.155.055.468.468 0 0 0 -.018-.184c-.098-.292-.533-.367-.61-.665a1.364 1.364 0 0 1 -.022-.223c-.025-.26-.202-.481-.263-.735-.057-.234-.014-.49-.123-.707a1.974 1.974 0 0 0 -.325-.367 1.443 1.443 0 0 1 -.309-.585c-.016-.06-.03-.122-.047-.182a.838.838 0 0 0 -.044-.403c-.111-.277-.399-.455-.502-.735-.081-.218-.046-.49-.198-.66a.714.714 0 0 0 -.29-.175 6.426 6.426 0 0 0 -1.743-.413c-.335-.03-.704-.047-.943-.284-.28-.274-.293-.768-.62-.98-.29-.187-.697-.049-.92.215-.034.038-.065.08-.094.122a1.315 1.315 0 0 1 -.025-.502c0-.042.008-.085.012-.123a2.444 2.444 0 0 0 1.324-1.048v.007l.015.038c.035.09.092.175.175.185.055 0 .108-.02.151-.055a1.256 1.256 0 0 0 .435-.528c.06-.13.102-.269.122-.41.022-.143.025-.289.049-.43.023-.11.053-.22.09-.325l.035-.107c.01-.036.027-.083.039-.122.076-.252.117-.514.122-.777v-.133a1.294 1.294 0 0 0 -.41-.912c-.21-.173-.49-.245-.643-.48-.1-.156-.122-.358-.18-.542a1.223 1.223 0 0 0 -.961-.866c-.27-.03-.543.045-.76.21l-.017.013a1.224 1.224 0 0 0 -.303.338 1.007 1.007 0 0 1 -.43-.245c-.122-.114-.216-.257-.34-.368a.872.872 0 0 0 -.87-.183c-.309.124-.54.39-.621.714-.068.252-.055.543-.196.753-.109.164-.287.245-.411.395a.743.743 0 0 0 -.154.327.888.888 0 0 0 -.014.295v.015a.858.858 0 0 0 .203.435.804.804 0 0 0 .436.258l.145.033.052.013a2.45 2.45 0 0 0 -.069 2.157c0 .034-.008.069-.012.103-.02.482.001.966.064 1.444.017.19.027.4-.09.55-.052.06-.112.113-.177.158.066-.085.133-.17.202-.254-.172-.174-.445-.196-.69-.18a3.186 3.186 0 0 0 -1.343.412c-.274.158-.555.368-.867.331-.185-.02-.367-.122-.546-.073-.101.041-.196.097-.28.166a.378.378 0 0 1 -.23.071c-.192-.236-.488-.397-.718-.589a5.67 5.67 0 0 1 -.715-.768c-.396-.48-.79-.96-1.179-1.443-.327-.407-.663-.847-.72-1.367a1.343 1.343 0 0 1 -.009-.156c.008-.247.04-.494.093-.735a.369.369 0 0 0 0-.178c-.037-.122-.177-.168-.298-.195.016-.094.027-.19.033-.283.068-1.053-.006-2.124.216-3.155.084-.397.222-.8.507-1.087.446-.452 1.192-.561 1.534-1.097.286-.446.173-1.076-.187-1.47-.359-.393-.912-.553-1.439-.534a.741.741 0 0 0 -.419.113.893.893 0 0 0 -.254.387l-.524 1.278c-.152.332-.28.675-.383 1.026-.147.537-.18 1.103-.296 1.644 0 .417-.268.936-.414 1.32-.164.431-.341.858-.489 1.297-.037.11-.165.438-.244.735a.447.447 0 0 0 -.083.063 2.217 2.217 0 0 0 -.174.258c-.11.147-.292.226-.414.368s-.148.403.022.474c.035.012.07.02.106.023a.412.412 0 0 1 .066.011c.184.052.256.283.229.474-.027.192-.122.368-.138.56-.033.337.165.652.355.936.198.308.416.603.653.881.172.194.366.368.54.554.66.681 1.186 1.477 1.78 2.217.213.28.456.535.724.762.175.138.358.264.548.379l1.022.65c.116.084.247.146.386.182a.512.512 0 0 0 .137 0c.006.03.01.06.018.09.08.321.254.613.274.94s-.01.662.013.992c.022.306.09.613.106.913.035.578-.107 1.15-.244 1.715-.206.829-.331 1.674-.733 2.425-.112.207-.244.418-.244.654 0 .028 0 .058.007.086l-.183.104c-.054.03-.108.061-.157.093-.232.152-.48.32-.575.582-.077.212-.042.455-.134.66a.293.293 0 0 1 -.015.027c-.098.191-.292.334-.336.543-.033.16.03.33 0 .49v.006c-.028.08-.05.162-.066.245a.294.294 0 0 0 .007.081.467.467 0 0 0 .147.239c.044.042.092.08.143.114.052.034.106.066.161.095l.032.018.14.07.032.013c.055.024.111.046.168.066l.039.012c.044.015.089.029.134.04l.03.01.029.005.122.026.045.009c.054.009.109.016.165.022h.049c.041 0 .082.006.122.007h.224c.057 0 .114-.008.172-.016h.018a2.25 2.25 0 0 0 .154-.027l.04-.008a2.04 2.04 0 0 0 .142-.037l.026-.007c.057-.018.115-.036.17-.058.195-.08.384-.174.565-.28.122-.068.244-.137.367-.199.09-.046.183-.087.278-.122.231-.1.483-.141.733-.123.124.017.246.042.367.075v.04l.294 1.764c.16-.115.33-.217.506-.305a1.131 1.131 0 0 0 -.065.495c.011.117.035.245-.034.337-.043.056-.122.088-.146.152a.52.52 0 0 0 -.012.2.318.318 0 0 1 -.29.296.466.466 0 0 1 -.185.547.645.645 0 0 0 -.142.093.424.424 0 0 0 -.082.185 3.275 3.275 0 0 1 -.956 1.576 3.079 3.079 0 0 0 -.473.464 2.11 2.11 0 0 0 -.214.422c-.325.799-.656 1.598-.992 2.398-.185.447-.366.901-.425 1.383-.146 1.32-1.32 2.44-1.1 3.751.045.328.177.637.382.896.244.295.61.464.977.601.942.368 1.935.569 2.925.77l1.554.32c.305.071.614.12.926.148.375.025.76-.01 1.125.085.226.06.442.168.675.18.2.012.448-.031.566.133.119.164.027.38.14.527.18.231.621 0 .818.218.054.083.095.175.122.27a.49.49 0 0 0 .122.155c.012.069.017.14.015.21a3.622 3.622 0 0 1 -.176.835l-.439 1.493a3.316 3.316 0 0 0 -.122.54c-.009.088-.009.178 0 .266.026.271.181.55.439.639.2.053.412.026.594-.074.174-.091.338-.202.488-.33.27-.206.508-.451.705-.728.61-.917.413-2.157.842-3.17.284-.676.839-1.225 1.023-1.938a.778.778 0 0 0 .015-.419c-.077-.245-.337-.385-.58-.473h-.011c-.2-.071-.404-.13-.61-.175a3.202 3.202 0 0 0 -.157-.028.961.961 0 0 1 -.27-.353.823.823 0 0 0 -.058-.212.22.22 0 0 0 -.176-.098c-.122-.012-.285.032-.419.022-.272-.02-.453-.288-.697-.411-.245-.124-.51-.094-.77-.075a.71.71 0 0 1 -.278-.017 1.047 1.047 0 0 1 -.294-.203 1.226 1.226 0 0 0 -1.076-.216 1.17 1.17 0 0 1 -.366.083c-.239-.014-.407-.227-.583-.388-.481-.443-1.167-.56-1.75-.85a.4.4 0 0 1 -.21-.18c-.068-.167.084-.334.22-.448l1.005-.837c1.099-.916 2.473-1.606 2.984-2.95.053-.18.136-.35.244-.503a.682.682 0 0 1 .136-.123c.222-.144.491-.197.751-.147.317.071.617.203.885.387.437.266.863.552 1.276.858.41.294.8.615 1.167.96.641.613 1.175 1.34 1.773 2 .597.66 1.28 1.276 2.11 1.592.829.317 1.832.303 2.544-.227.822-.613 1.086-1.708 1.294-2.713.458-.443.596-1.118.82-1.715.14-.379.32-.735.471-1.112.18-.444.323-.902.464-1.359.16-.459.27-.934.325-1.417.059-.764-.145-1.576.069-2.293.282-.062.538-.221.816-.315.413-.136.855-.113 1.292-.111h.028c.151.016.303-.02.43-.102.147-.122.17-.332.177-.522.018-.469-.012-.996-.362-1.3zm-17.7-20.898a.905.905 0 0 1 -.31.022z" fill="url(#b)" fill-rule="nonzero"/><path d="m97.039 26.05a1.343 1.343 0 0 1 -.509.27l-.866.312c-.47.169-.961.339-1.457.278-.278-.035-1.466-.21-1.646-.427-.273-.335.686-.83 1.013-1.112.074-.054.143-.114.205-.181.122-.15.107-.36.09-.548a8.477 8.477 0 0 1 -.064-1.442c.01-.115.026-.229.049-.342.122-.563.645-.358 1.058-.208.497.162.977.37 1.435.624.14.072.26.175.354.3.181.275.11.635.08.981-.026.268-.025.526.143.72.084.075.161.157.23.245a.46.46 0 0 1 -.115.53zm-11.965-8.83c.122-.543.149-1.102.295-1.64.104-.35.232-.692.384-1.023l.539-1.26a.89.89 0 0 1 .254-.387.75.75 0 0 1 .419-.112c.526-.02 1.08.144 1.439.532.36.389.473 1.017.187 1.462-.342.535-1.089.643-1.534 1.094-.285.288-.423.689-.507 1.084-.223 1.03-.148 2.096-.217 3.148-.022.327-.085.7-.366.87-.17.083-.359.12-.547.106l-.802.014c-.134 0-.622.084-.71-.018-.157-.177.2-1.062.264-1.26.144-.436.322-.863.489-1.293.145-.383.413-.901.413-1.317z" fill="#be6f72"/><path d="m101.62 55.708c-.184.709-.738 1.26-1.023 1.935-.429 1.01-.236 2.247-.842 3.16a3.335 3.335 0 0 1 -.704.73c-.15.128-.314.238-.489.33a.802.802 0 0 1 -.594.073c-.258-.089-.413-.368-.438-.637a1.289 1.289 0 0 1 0-.266c.025-.183.066-.363.122-.538.146-.496.293-.992.438-1.49.092-.27.15-.55.176-.833.016-.309-.18-.71-.096-.998.038-.13.18-.245.244-.354.092-.157.163-.326.21-.501.1-.342.169-.707.379-.995.137-.171.297-.322.476-.447.132-.117.287-.204.455-.256.162-.03.33-.021.489.023.207.044.41.102.61.174h.011c.245.088.504.224.58.471a.773.773 0 0 1 -.003.42zm13-15.061c-.008.19-.031.402-.178.52a.666.666 0 0 1 -.43.102h-.033c-.436 0-.88-.024-1.292.112-.314.104-.603.295-.93.333-.45.051-.875-.196-1.274-.412a12.659 12.659 0 0 0 -1.157-.551c-.26-.107-.788-.175-.913-.46a4.192 4.192 0 0 1 -.107-.409 1.362 1.362 0 0 0 -.075-.18 1.037 1.037 0 0 1 -.137-.405c0-.143.05-.281.14-.392a1.17 1.17 0 0 1 .8-.413c.308-.024.617-.008.921.049l3.008.434c.232.033.465.066.694.122.216.038.421.128.596.262.355.3.385.825.366 1.288z" fill="#3f3d56"/><path d="m111.976 41.43c-.367.776-.103 1.694-.169 2.552a6.517 6.517 0 0 1 -.325 1.413c-.142.456-.283.913-.464 1.355-.152.368-.331.735-.472 1.11-.223.598-.366 1.27-.82 1.715-.207 1.003-.471 2.098-1.293 2.706-.715.529-1.71.547-2.545.227-.834-.32-1.512-.932-2.11-1.592-.597-.66-1.13-1.38-1.772-1.995a11.123 11.123 0 0 0 -1.17-.959c-.413-.301-.839-.585-1.276-.85a2.553 2.553 0 0 0 -.884-.386c-.26-.05-.53.003-.752.147a.682.682 0 0 0 -.135.122 1.688 1.688 0 0 0 -.245.503c-.513 1.34-1.89 2.028-2.989 2.942l-1.004.835c-.137.114-.289.28-.221.446a.4.4 0 0 0 .21.181c.584.29 1.27.406 1.75.847.176.161.345.374.583.387.126-.008.25-.035.367-.082a1.23 1.23 0 0 1 1.076.215c.085.084.185.152.293.202a.71.71 0 0 0 .279.018c.26-.019.536-.042.77.074.233.117.424.391.697.41.133.01.292-.034.419-.021a.22.22 0 0 1 .176.098.814.814 0 0 1 .057.21c.05.173.219.278.329.42.168.219.193.515.176.79a3.375 3.375 0 0 1 -1.07 2.257c-.18.184-.409.312-.659.368a.61.61 0 0 1 -.652-.29 1.008 1.008 0 0 0 -.122-.27c-.197-.217-.638.014-.819-.218-.112-.145-.032-.376-.14-.526-.107-.149-.366-.122-.565-.13-.233-.013-.45-.123-.675-.18-.367-.096-.75-.06-1.126-.087a6.775 6.775 0 0 1 -.926-.147l-1.553-.318c-.99-.202-1.983-.407-2.925-.768-.36-.137-.723-.306-.977-.6a1.84 1.84 0 0 1 -.382-.895c-.22-1.307.952-2.424 1.1-3.741.052-.48.244-.934.425-1.38.332-.797.662-1.595.992-2.392.053-.149.123-.291.208-.424.14-.17.299-.326.472-.462.463-.422.796-.968.957-1.573a.424.424 0 0 1 .082-.185.686.686 0 0 1 .142-.092.466.466 0 0 0 .184-.545.318.318 0 0 0 .29-.297.514.514 0 0 1 .013-.198c.03-.064.103-.096.145-.152.07-.092.046-.22.035-.336a1.127 1.127 0 0 1 .327-.904c.292-.288.707-.213 1.11-.282a6.348 6.348 0 0 0 1.173-.376 11.494 11.494 0 0 1 3.312-.768 7.212 7.212 0 0 1 3.345.534 1.9 1.9 0 0 1 .431.245.819.819 0 0 1 .226.27c.045.13.1.256.166.377.131.179.378.236.52.406.144.169.156.454.274.664.17.298.564.437.68.762.038.102.042.215.07.322.065.267.263.478.438.688a5.301 5.301 0 0 1 1.182 2.696c.04-.622.456-1.172.978-1.515.14-.092.303-.193.33-.36.036-.21-.168-.398-.154-.612a.601.601 0 0 1 .122-.287c.233-.339.488-.66.765-.964.15-.166.318-.368.256-.586-.048-.163-.214-.258-.305-.4a.51.51 0 0 1 .012-.564c.085-.116.221-.201.263-.34.047-.162-.06-.339-.026-.507a.627.627 0 0 1 .252-.327c.162-.148.346-.27.546-.36.322-.122.681-.077 1.023-.03.572.08 1.213.203 1.536.683.206.3.311.756.158 1.077z" fill="#65617d"/><path d="m114.62 40.647c-.008.19-.031.402-.178.52a.666.666 0 0 1 -.43.102h-.033c.05-.255.36-.4.413-.659a.584.584 0 0 0 -.134-.445c-.262-.354-.682-.55-1.1-.693a7.264 7.264 0 0 0 -3.672-.276 3.69 3.69 0 0 0 -.965.298c-.102.064-.2.133-.293.208a1.037 1.037 0 0 1 -.137-.405c0-.143.05-.281.139-.392a1.17 1.17 0 0 1 .8-.413c.308-.024.618-.008.921.049l3.008.434c.232.033.465.066.694.122.217.038.421.128.596.262.36.3.389.825.37 1.288zm-13 15.061c-.184.709-.738 1.26-1.023 1.935-.429 1.01-.236 2.247-.842 3.16a3.335 3.335 0 0 1 -.704.73c-.15.128-.314.238-.489.33a.802.802 0 0 1 -.594.073c-.258-.089-.413-.368-.438-.637a1.289 1.289 0 0 1 0-.266l.007.02c.106.257.28.526.553.572a.748.748 0 0 0 .565-.2c.403-.325.637-.809.861-1.276.175-.336.313-.69.413-1.057.049-.208.072-.421.122-.63.232-1.011 1.023-1.837 1.197-2.863a.703.703 0 0 0 .01-.214 1.085 1.085 0 0 0 -.105-.267 1.326 1.326 0 0 1 -.093-.297c.245.089.504.225.58.472a.773.773 0 0 1 -.02.415zm-1.844-1.756a1.775 1.775 0 0 1 -.55.754 2.684 2.684 0 0 1 -1.187.515c-.2.051-.411.049-.61-.008-.272-.094-.467-.349-.745-.422-.198-.054-.41-.006-.61-.036-.36-.05-.64-.326-.931-.546-.891-.671-2.06-.888-2.95-1.56a.274.274 0 0 1 -.096-.099.296.296 0 0 1 -.018-.138c.003-.408.094-.81.267-1.178.142-.257.31-.498.504-.719.797-.98 1.599-1.967 2.554-2.794.4-.347.838-.67 1.344-.827.28-.087.835-.17 1.177-.022a.682.682 0 0 0 -.135.122 1.688 1.688 0 0 0 -.244.502c-.515 1.342-1.892 2.03-2.991 2.944l-1.004.835c-.137.114-.289.28-.221.446a.4.4 0 0 0 .21.181c.584.29 1.27.406 1.75.847.176.161.345.374.583.387.126-.008.25-.035.367-.082a1.23 1.23 0 0 1 1.076.215c.085.084.185.152.293.202a.71.71 0 0 0 .279.018c.26-.019.536-.042.77.074.233.117.424.391.697.41.135.01.294-.036.421-.021z" fill="#000" opacity=".1"/><path d="m88.54 37.324c-.231.15-.478.319-.573.579-.079.212-.042.454-.136.66s-.305.35-.352.57c-.033.16.032.33 0 .49-.027.083-.05.168-.067.254-.012.183.144.331.297.433.66.43 1.483.52 2.22.245.326-.123.62-.322.933-.479a1.842 1.842 0 0 1 1.005-.245c.202.022.395.095.597.122.202.04.41-.022.558-.166a.7.7 0 0 0 .122-.29c.17-.673.093-1.386-.068-2.062-.162-.677-.406-1.327-.578-2-.122-.498-.216-1.01-.42-1.48-.205-.473-.548-.911-1.028-1.091a.191.191 0 0 0 -.122-.016.208.208 0 0 0 -.08.059 3.77 3.77 0 0 0 -.838 1.413c-.191.587-.244 1.21-.42 1.799-.076.245-.173.573-.366.76-.193.188-.464.304-.683.445z" fill="#3f3d56"/><path d="m93.148 39.493a.715.715 0 0 1 -.129.29.618.618 0 0 1 -.558.166c-.2-.025-.393-.1-.595-.123-.351-.016-.7.069-1.005.245-.313.157-.611.352-.935.478a2.46 2.46 0 0 1 -2.215-.239c-.154-.1-.309-.245-.297-.433.018-.085.04-.17.068-.253.031-.16-.032-.33 0-.49.046-.22.259-.368.352-.571.092-.203.057-.447.134-.66.095-.26.343-.428.575-.579.232-.15.508-.266.694-.448a2.208 2.208 0 0 0 .355-.766c.18-.59.23-1.211.42-1.8.173-.526.46-1.009.839-1.412a.185.185 0 0 1 .078-.059.195.195 0 0 1 .122.015c.48.181.822.62 1.028 1.091.205.472.292.98.42 1.48.171.673.417 1.326.578 2.001s.24 1.393.07 2.067zm3.632-14.942a2.441 2.441 0 0 1 -2.975-1.347c.01-.115.026-.23.049-.342.122-.564.645-.358 1.058-.208.497.162.977.37 1.435.623.14.072.26.175.354.302.181.27.11.63.08.972z" fill="#000" opacity=".1"/><ellipse cx="96.043" cy="22.094" fill="#be6f72" rx="2.443" ry="2.45"/><path d="m102.673 40.404c0 .204-.275.269-.48.258-.732-.043-1.45-.245-2.175-.184-.917.083-1.76.592-2.68.638-.354.018-.715-.034-1.064.03-.452.085-.855.36-1.316.4-.4.034-.794-.116-1.193-.1-.28.016-.552.094-.798.228.027-.26.142-.502.327-.685.292-.288.708-.214 1.11-.282a6.348 6.348 0 0 0 1.173-.376 11.494 11.494 0 0 1 3.312-.768 7.212 7.212 0 0 1 3.344.53 1.9 1.9 0 0 1 .431.245c.007.022.01.044.009.066z" fill="#000" opacity=".1"/><path d="m94.913 26.568-.99-.368-.417-.154c-.17-.072-.35-.12-.533-.142-.479-.037-.93.283-1.185.69-.255.409-.352.895-.434 1.37-.112.648-.207 1.299-.286 1.952-.084.59-.127 1.185-.128 1.781.028 1.517.348 3.013.7 4.49.172.654.303 1.319.39 1.99.03.277.043.555.072.833.032.313.083.621.134.931l.295 1.76c.366-.26.783-.49 1.234-.503.399-.015.795.135 1.193.1.458-.037.864-.313 1.316-.398.35-.064.71-.013 1.065-.03.919-.047 1.763-.556 2.68-.638.726-.067 1.448.14 2.176.182.203.012.478-.053.478-.257 0-.142-.142-.237-.265-.308a13.072 13.072 0 0 1 -1.656-1.184c-.481-.383-.97-.775-1.3-1.292-.798-1.243-.525-2.925-1.205-4.237-.554-1.066 0-2.463 0-3.665 0-.599 0-1.205-.14-1.787a7.597 7.597 0 0 0 -.328-.956l-.475-1.206a.197.197 0 0 0 -.057-.092.187.187 0 0 0 -.108-.033 1.144 1.144 0 0 0 -.79.253c-.223.183-.366.445-.586.635-.24.21-.55.393-.85.283z" fill="#e3e8f4"/><path d="m96.51 25.872c.078-.336.162-.685.386-.947.223-.262.631-.4.92-.213.327.213.34.705.62.98.244.235.61.253.943.284a6.38 6.38 0 0 1 1.744.412.712.712 0 0 1 .289.174c.153.174.122.44.198.658.104.279.39.457.502.735.122.308 0 .654-.103.971-.184.57-.3 1.162-.48 1.734s-.435 1.135-.855 1.567c-.186.19-.462.367-.706.253l-.094.68a1.159 1.159 0 0 0 0 .435.39.39 0 0 0 .283.301c.019.106.13.156.22.214a.613.613 0 0 1 .155.857c-.077.104-.19.186-.227.31-.055.179.076.368.235.466s.346.143.507.237c.335.194.514.575.629.945.085.28.156.582.366.785.081.077.178.136.255.217.133.158.21.356.218.562.034.257-.022.516-.159.736-.244.35-.7.454-1.1.612-.648.267-1.182.745-1.753 1.152a1.87 1.87 0 0 1 -.8.377c-.396.053-.786-.123-1.184-.138a2.931 2.931 0 0 0 -.706.093l-.733.159c.039-.57-.274-1.14-.449-1.683-.33-1.022-.39-2.115-.313-3.186.079-1.07.296-2.126.511-3.178.15-.735.136-1.503.367-2.217.216-.687.525-1.348.639-2.063.185-1.158-.587-2.14-.325-3.281z" fill="#3f3d56"/><path d="m102.067 28.137c.067.125.115.26.14.398.057.216.163.416.31.584.122.108.231.232.324.367.113.213.07.473.123.706.06.253.238.474.263.735.001.075.008.15.021.223.08.296.514.367.611.664.065.192-.046.402-.026.604a.533.533 0 0 1 .011.19.388.388 0 0 1 -.139.18 2.82 2.82 0 0 0 -.804 1.434c-.117.545-.18 1.1-.184 1.658l-.478-.633a.727.727 0 0 0 -.19-.196c-.062-.037-.132-.056-.195-.092-.18-.103-.251-.321-.321-.517a4.781 4.781 0 0 0 -.855-1.485c-.194-.23-.42-.46-.463-.757a1.398 1.398 0 0 1 .022-.41c.122-.802.253-1.624.642-2.336.182-.333.418-.634.593-.973.117-.224.282-.807.595-.344zm-12.052.771a.561.561 0 0 1 -.075.294.385.385 0 0 1 -.386.122 1.115 1.115 0 0 1 -.386-.181l-1.022-.648a5.653 5.653 0 0 1 -.548-.377 4.903 4.903 0 0 1 -.725-.761c-.593-.735-1.119-1.533-1.78-2.205-.18-.184-.366-.36-.54-.553a8.062 8.062 0 0 1 -.652-.88c-.19-.283-.388-.596-.355-.934.02-.191.11-.368.138-.558.026-.19-.046-.421-.229-.473a.412.412 0 0 0 -.066-.01.497.497 0 0 1 -.106-.024c-.17-.071-.144-.334-.022-.473.122-.138.303-.215.414-.367.052-.09.11-.177.174-.259a.66.66 0 0 1 .284-.143 4.393 4.393 0 0 1 2.169-.082c.122.027.261.076.298.195a.36.36 0 0 1 0 .176 3.956 3.956 0 0 0 -.093.735c0 .052.002.103.008.154.058.52.394.96.721 1.365.389.483.783.962 1.179 1.44.214.277.453.533.715.765.244.204.56.368.751.629.155.21.105.498.122.752.057.766.061 1.535.012 2.3z" fill="#3f3d56"/><path d="m105.53 34.019c.12-.118.23-.247.325-.386a2.55 2.55 0 0 0 .244-.548l.709-2.015c.112-.318.225-.638.367-.948.146-.335.32-.657.48-.98.411-.851.73-1.745.949-2.665a.99.99 0 0 0 .038-.39c-.034-.213-.195-.378-.347-.529a2.541 2.541 0 0 0 -.52-.43.853.853 0 0 0 -.653-.106c-.313.092-.51.413-.582.735s-.045.652-.075.98c-.044.47-.205.925-.245 1.397-.02.273 0 .548-.033.82-.06.358-.184.7-.366 1.014a6.574 6.574 0 0 1 -1.58 1.947 2.543 2.543 0 0 0 -.474.457 1.493 1.493 0 0 0 -.228.571c-.081.311-.046.641.099.928.199.34.581.49.947.566.493.103.607-.066.945-.418z" fill="#be6f72"/><path d="m96.058 18.543a1.14 1.14 0 0 1 1.106-.601c.459.081.83.417.96.865.058.182.081.384.181.541.152.237.433.305.643.477.253.236.401.564.41.911.012.351-.043.7-.162 1.03-.05.141-.091.285-.122.432-.025.142-.027.287-.049.429a1.397 1.397 0 0 1 -.56.927.244.244 0 0 1 -.152.055c-.096-.01-.154-.122-.19-.223-.194-.562-.147-1.25-.505-1.698a1.851 1.851 0 0 0 -.58-.432.745.745 0 0 0 -.295-.112.777.777 0 0 0 -.428.157c-.257.174-.544.3-.845.375a1.036 1.036 0 0 1 -.873-.189c-.17-.14-.292-.349-.48-.458-.186-.109-.382-.103-.566-.178a.84.84 0 0 1 -.34-1.283c.122-.147.303-.23.412-.394.14-.21.128-.5.195-.752.081-.324.313-.589.622-.712a.872.872 0 0 1 .87.183c.122.11.22.252.34.367.24.23.58.323.904.245" fill="#3f3d56"/><path d="m98.066 36.576a.476.476 0 0 0 -.13.52c.027.057 1.288-.187 1.421-.205.333-.048.915-.025 1.139-.33.398-.54-.836-.42-1.062-.4-.43.036-1.04.095-1.368.415z" fill="#000" opacity=".1"/><path d="m86.597 20.772a3.956 3.956 0 0 0 -.093.735c-.366.075-.747-.048-1.1-.17l-1.01-.346a.287.287 0 0 0 -.385.072c-.163.17-.386.49-.611.68a.497.497 0 0 1 -.107-.023c-.17-.071-.144-.334-.022-.473.123-.138.303-.215.415-.367.051-.09.11-.177.173-.259a.66.66 0 0 1 .285-.143 4.393 4.393 0 0 1 2.168-.082c.122.027.262.076.298.195a.36.36 0 0 1 -.01.18z" fill="#3f3d56"/><path d="m86.597 20.772a3.956 3.956 0 0 0 -.093.735c-.366.075-.747-.048-1.1-.17l-1.01-.346a.287.287 0 0 0 -.385.072c-.163.17-.386.49-.611.68a.497.497 0 0 1 -.107-.023c-.17-.071-.144-.334-.022-.473.123-.138.303-.215.415-.367.051-.09.11-.177.173-.259a.66.66 0 0 1 .285-.143 4.393 4.393 0 0 1 2.168-.082c.122.027.262.076.298.195a.36.36 0 0 1 -.01.18zm9.242 23.258c.176.06.366.145.426.322l-1.414-.36-.733-.188c-.13-.033-.594-.071-.68-.173-.122-.15.312-.046.39-.035.237.035.474.072.71.115.445.08.872.21 1.3.32zm.548 1.256c-.122-.082-.472-.072-.623-.107-.22-.053-.436-.123-.652-.19-.439-.144-.873-.307-1.324-.412-.083-.018-.367-.023-.353-.129.013-.105.283-.142.35-.147.4-.029.898.158 1.27.292.473.17.921.403 1.332.693zm-.897-2.376c-.448-.122-.854-.401-1.316-.455a.534.534 0 0 1 -.336-.103.397.397 0 0 1 -.109-.196c.31-.016.668.115.95.24.154.066.303.145.444.237.103.062.257.242.368.278z" fill="#000" opacity=".1"/><path d="m104.037 31.941a2.143 2.143 0 0 0 1.498 2.368c-.06.29-.36.451-.57.658-.299.29-.452.725-.804.946-.392.245-.897.15-1.344.047a.164.164 0 0 1 -.105-.056.15.15 0 0 1 -.02-.047c-.147-.543-.244-1.123-.093-1.666.123-.464.416-.858.65-1.267.235-.41.257-.848.788-.983zm-10.922-7.025a3.17 3.17 0 0 0 -1.344.41c-.274.158-.555.368-.868.33-.184-.02-.366-.122-.546-.073a1.07 1.07 0 0 0 -.28.166.316.316 0 0 1 -.307.05l-.122 1.695c-.047.644-.092 1.302.062 1.93.08.322.254.613.274.94.02.325-.01.66.013.99.022.304.09.604.106.91.035.575-.107 1.146-.244 1.706-.206.826-.331 1.67-.733 2.417-.112.207-.244.418-.244.653 0 .03 0 .058.007.086a6.309 6.309 0 0 0 -.34.197c-.232.15-.48.319-.575.58-.077.212-.042.454-.134.659-.093.204-.306.35-.352.57-.033.161.03.33 0 .49-.028.084-.05.168-.067.254-.013.184.143.332.296.433.225.148.473.257.733.323l.73-2.903a23.446 23.446 0 0 0 1.653-3.856c.124-.435.284-.86.477-1.269a5.97 5.97 0 0 0 .367-.72c.111-.31.122-.644.176-.97a6.8 6.8 0 0 1 .287-1.118c.132-.393.284-.785.311-1.198.04-.59-.173-1.214.054-1.76.097-.205.222-.395.373-.563.315-.387.602-.793.917-1.18-.164-.175-.436-.193-.68-.179z" fill="#3f3d56"/><path d="m96.557 18.14-.152.011-.018.013a.9.9 0 0 0 .17-.024zm2.795 2.544a3.309 3.309 0 0 1 -.156.715c-.05.14-.091.285-.122.431-.025.142-.027.287-.049.43a1.397 1.397 0 0 1 -.56.927.244.244 0 0 1 -.152.055c-.096-.011-.154-.123-.19-.223-.194-.563-.147-1.25-.505-1.698a1.851 1.851 0 0 0 -.58-.433.745.745 0 0 0 -.295-.111.777.777 0 0 0 -.428.157c-.257.173-.544.3-.845.374a1.036 1.036 0 0 1 -.873-.188c-.17-.14-.292-.35-.48-.458-.186-.11-.382-.103-.566-.178a.836.836 0 0 1 -.486-.593.836.836 0 0 0 .486.96c.184.075.392.076.567.178.174.102.31.319.479.458.247.192.568.261.873.189.301-.075.588-.201.845-.375a.777.777 0 0 1 .428-.157.745.745 0 0 1 .296.112c.216.106.41.255.57.436.358.448.312 1.136.506 1.698.035.102.094.212.19.223.058 0 .115-.02.16-.059.304-.221.507-.557.561-.931.022-.142.025-.287.049-.429.03-.146.072-.29.122-.431.12-.33.174-.68.163-1.03l-.008-.05z" fill="#000" opacity=".1"/><path d="m91.623 30.514-.083 1.118c-.012.152-.302 3.769-2.437 7.996-1.833 3.625-5.399 8.346-12.131 11-.525.208-1.07.403-1.636.583l-.63-1.985a23.108 23.108 0 0 0 4.547-1.994c3.431-1.987 6.1-4.823 7.96-8.473a22.803 22.803 0 0 0 2.089-6.162h-7.66v-2.083z" fill="#6c63ff"/><path d="m76.147 50.63c6.732-2.655 10.299-7.375 12.13-11 2.135-4.227 2.426-7.84 2.437-7.995l.083-1.119h.855l-.083 1.119c-.01.152-.301 3.768-2.437 7.995-1.832 3.625-5.398 8.345-12.13 11-.525.207-1.07.402-1.637.583l-.083-.26c.295-.106.584-.214.865-.324z" fill="#fff" opacity=".1"/><path d="m62.67 49.226-.63 1.985a25.777 25.777 0 0 1 -1.637-.584c-6.731-2.654-10.299-7.374-12.13-11-2.135-4.226-2.426-7.84-2.437-7.995l-.083-1.118h9.976v2.083h-7.661c.4 2.144 1.106 4.22 2.095 6.162 1.86 3.65 4.527 6.486 7.959 8.472a23.055 23.055 0 0 0 4.548 1.995z" fill="#6c63ff"/><path d="m61.226 50.63c-6.731-2.655-10.298-7.375-12.13-11-2.135-4.227-2.426-7.84-2.437-7.995l-.083-1.119h-.855l.083 1.119c.011.152.302 3.768 2.437 7.995 1.833 3.625 5.399 8.345 12.13 11 .525.207 1.071.402 1.637.583l.083-.26a33.113 33.113 0 0 1 -.865-.324z" fill="#fff" opacity=".1"/><path d="m80.212 68.412v11.23h-23.049v-11.23l.733-.98c7.47-2.659 8.983-9.592 9.284-12.335.045-.379.071-.76.077-1.142h2.85c.007.382.033.763.077 1.142.307 2.743 1.82 9.678 9.285 12.335z" fill="#6c63ff"/><path d="m57.163 68.412h23.049v1.409h-23.049z" fill="#000" opacity=".1"/><path d="m59.118 67.432c7.469-2.659 8.982-9.592 9.284-12.335.045-.379.07-.76.077-1.142h-1.222c-.006.382-.032.763-.077 1.142-.306 2.743-1.82 9.678-9.284 12.335l-.733.98v11.23h1.222v-11.23z" fill="#fff" opacity=".1"/><path d="m53.662 30.514h2.067v2.083h-1.884a53.195 53.195 0 0 1 -.183-2.083zm9.008 18.712-.63 1.985a25.777 25.777 0 0 1 -1.637-.584 21.952 21.952 0 0 1 -2.281-3.396 23.055 23.055 0 0 0 4.548 1.995zm12.035 0a23.108 23.108 0 0 0 4.546-1.994 22.039 22.039 0 0 1 -2.28 3.397c-.526.208-1.07.403-1.636.583zm9.007-18.712c-.048.702-.11 1.397-.184 2.083h-1.882v-2.083zm-13.522 24.583a7.875 7.875 0 0 1 -3.005 0c.045-.379.07-.76.077-1.142h2.85c.007.382.032.763.077 1.142z" fill="#000" opacity=".1"/><path d="m53.906 27.064c.053 15.444 6.65 27.933 14.782 27.933s14.728-12.49 14.782-27.933z" fill="#6c63ff"/><path d="m56.533 27.064h-2.627c.053 15.444 6.65 27.933 14.782 27.933.44-.001.88-.038 1.313-.112-7.518-1.26-13.418-13.218-13.468-27.821z" fill="#fff" opacity=".1"/><path d="m60.849 72.711h15.677v4.043h-15.677z" fill="#3f3d56"/><path d="m61.582 73.262h14.944v-.551h-15.677v4.042h.733z" fill="#fff" opacity=".1"/><path d="m45.545 41.975c-.282-.094-1.943-1.413-2.07-2.01-.125-.596.88-6.154.88-6.154s-.094 0-.245-.019v-.09l.206-7.3s.847-4.901-.752-4.616c-1.6.286-.596 4.615-.596 4.615s-.182 2.198-.31 2.857c-.123.636-.682 3.226-.301 4.03.014.03.03.057.046.084 0 0 .064 2.763-.627 3.14-.658.36-.932 2.166-.955 2.328l-.035-.015a1.916 1.916 0 0 1 -.51-.467c-.014-.018-.025-.038-.039-.057a2.7 2.7 0 0 0 -.828-4.213 1.744 1.744 0 0 0 -.163-.677c-.317-.68-2.076-1.571-3.326-1.592-.577-.017-1.05.147-1.222.599-.088.229-.06.49-.097.727-.074.49-.388.874-.79 1.179a4.961 4.961 0 0 0 -.527-.508c-.408-.314-1.222-1.348-1.222-1.348s-2.54-2.638-2.728-3.36c-.188-.723-2.725-5.064-3.29-4.308-.564.756 1.944 4.05 1.944 4.05s.476 1.197.843 1.601c.366.405 3.176 4.497 3.176 4.497l.134.279c-.593.314-1.136.713-1.328 1.335-.28.917.334 1.838.76 2.696.827 1.673.946 3.807-.123 5.336-.958 1.35-2.62 1.992-4.174 2.553a4.1 4.1 0 0 0 2.638.879c-.359 1.044-1.632 1.389-2.717 1.583.57.548 1.385.748 2.166.87.383.065.771.096 1.16.091h.095l.095-.007c.133-.009.264-.026.395-.05.564-.115 1.113-.424 1.401-.924.244-.428.33-1.01.773-1.225a.986.986 0 0 1 .367-.087h-.014.252l1.848.018h.236c.522-.012 1.079-.103 1.344-.535.11-.21.166-.443.167-.68.04-.587 0-1.19.016-1.783.158 1.077.323 2.756-.07 3.376-.318.47-.704.89-1.145 1.246a2.202 2.202 0 0 0 -.303.31c-.06.044-.096.067-.096.067l-.037.114a2.16 2.16 0 0 0 -.298.693.483.483 0 0 0 -.024.197c.043.087-.305.446-.204.597-.87 1.023-1.034 2.573-1.034 2.573l-1.589 2.418c-.816 2.15-2.037 2.37-2.037 2.37s-2.87-1.93-2.948-2.024c-.078-.095-1.175-.566-1.175-.566a1.245 1.245 0 0 0 -.565-.517c-.376-.157-.408-.735-.408-.735-.046-1.366-.846-1.47-.846-1.47-.645-.056-1.138.06-1.516.27l-.115.009c-.555.045-1.222.095-1.955.144-2.039.135-2.524 1.46-2.524 1.46s-.25.282.078.589c.33.306 2.433 0 2.522-.008-.16.018-.323.007-.479-.033.331-.012.787-.024 1.175-.024h.095a5.113 5.113 0 0 0 -.035.622c0 .392 1.081.643 1.081.643l3.292 2.94s2.07.928 3.387 2.262 2.48.183 2.48.183c1.395-.346 5.405-5.208 5.41-5.213 0 .142.083 4.87.243 5.82a.632.632 0 0 0 .036.141c.188.408-.064 1.523-.172 1.994-.07.393-.096.793-.08 1.193 0 0-1.504 5.758-1.379 6.264s-.815 2.857-.815 2.857v1.96l.164-.009a1.06 1.06 0 0 0 -.059.098l-.01.021s1.002.22 1.676.157c.675-.062 1.833.52 1.833.52s.392.187 1.6.265c1.206.079 1.206-.534 1.206-.534-.138-.834-2.045-1.113-2.104-1.122a5.616 5.616 0 0 1 -.416-.293l-.025-.02a.525.525 0 0 0 .021-.056c.204-.833-.925-1.194-.925-1.194v-.204c.733-.377.879-2.967.879-2.967s1.1-3.202 1.253-3.736c.154-.535 0-1.335 0-1.335l.11-.69s.236-.471.236-.565c.03-.24.122-.466.266-.66.172-.204-.188-.69-.188-.69l.314-.816v-.896l.733-3.249s.768-3.784.502-5.023c-.266-1.238.314-1.868.314-1.868a1.542 1.542 0 0 1 -.161.073 4.69 4.69 0 0 0 .19-.522l1.648.205v.025h.595s-.188-2.328-.188-3.267c0-.938.634-4.306.634-4.306s.282-3.292 0-3.386zm-7.321-2.717c0 .091-.009.187-.015.285l-.033.05-.06-.051-.075.116-.022.011c-.162-.083-.245-.56-.36-.457l-.017.014c-.025-.03-.05-.038-.078-.014l-.024.021v-.109c.223.058.453.087.684.087.001.016 0 .032 0 .047zm5.485 10.84h.036l-.06.154.024-.155zm-6.021 27.781-.225-.056.122-.02.114.074.013.01zm2.296-.33a3.218 3.218 0 0 1 -.223-.13c.024.013.12.063.223.13z" fill="url(#c)" fill-rule="nonzero"/><path d="m44.52 47.783-1.48 3.867h.36l-1.391 1.112 2.511.314z" fill="#f86d70"/><path d="m44.52 47.783-1.48 3.867-.372-.1-.66 1.212 2.512.314z" fill="#000" opacity=".1"/><path d="m42.2 50.257h2.32l.852-7.026h-3.172z" fill="#f86d70"/><path d="m42.2 50.257h2.32l.852-7.026h-3.172z" fill="#000" opacity=".1"/><path d="m37.67 44.894.5-.084 1.15-.196s3.457-.782 4.17-.846a4.446 4.446 0 0 0 1.251-.357c.187-.081.306-.142.306-.142l-1.245-2.28-1.931-1.436s-1.222-.261-1.739-.974a1.15 1.15 0 0 1 -.16-1.088c.315-.98-1.882.937-1.882.937s.02.46 0 1.045c0 .115-.011.235-.02.358 0 .08-.011.162-.02.245-.053.582-.163 1.181-.38 1.539-.532.874 0 3.28 0 3.28z" fill="#fbbebe"/><path d="m38.09 39.522h.048c.088 0 .16-.187.245-.196.688-.066 1.315-.21 1.752-.7a1.152 1.152 0 0 1 -.16-1.086c.315-.98-1.883.936-1.883.936s.023.46-.002 1.046z" fill="#000" opacity=".1"/><path d="m35.414 36.744c0 .712.282 1.395.784 1.899a2.673 2.673 0 0 0 1.894.786c.088 0 .175 0 .261-.012a2.683 2.683 0 0 0 2.411-2.848 2.68 2.68 0 0 0 -2.759-2.509 2.682 2.682 0 0 0 -2.59 2.684z" fill="#fbbebe"/><path d="m34.592 32.668c-.088.228-.061.482-.097.724-.13.87-1.013 1.393-1.812 1.758-.8.365-1.701.797-1.955 1.639-.279.91.33 1.823.752 2.677.824 1.664.941 3.785-.122 5.307-.944 1.348-2.59 1.987-4.139 2.548a4.073 4.073 0 0 0 2.62.875c-.355 1.038-1.62 1.382-2.697 1.573.566.546 1.376.745 2.152.865.565.088 1.146.146 1.71.032s1.1-.422 1.39-.919c.245-.425.328-1.005.769-1.219.199-.079.413-.11.626-.092l1.833.02c.57 0 1.246-.044 1.54-.533.109-.209.166-.44.166-.676.08-1.206-.151-2.48.344-3.58.149-.332-.808-.858-.708-1.21.345-1.209.432-2.16.428-3.419 0-.974.632-1.813 1.153-2.635.522-.822.958-1.86.546-2.742-.464-.984-3.95-2.413-4.499-.993z" fill="#3f3d56"/><path d="m37.032 77.526.466.31.072.048.014.009.553.367 1.293.218 1.136-.078s.327-.686-.187-.67a1.068 1.068 0 0 1 -.47-.136l-.07-.036a3.175 3.175 0 0 1 -.222-.13 6.213 6.213 0 0 1 -.698-.524z" fill="#fbbebe"/><path d="m37.504 77.836.072.048.014.009.553.367 1.293.218 1.136-.078s.327-.686-.187-.67a1.068 1.068 0 0 1 -.47-.136c.091.07.167.148.174.213.021.175-.84.49-.84.49l-1.214-.322s-.207-.059-.49-.132l-.026-.008z" fill="#000" opacity=".1"/><path d="m35.428 78.135s.995.218 1.665.156c.67-.063 1.822.516 1.822.516s.39.184 1.588.262c1.199.078 1.199-.532 1.199-.532-.137-.83-2.03-1.102-2.09-1.115.024.013.123.063.223.13.135.088.28.204.291.297.02.174-.84.49-.84.49l-1.215-.321s-.206-.06-.488-.134h-.027a10.39 10.39 0 0 0 -1.273-.263c-.523-.057-.79.39-.846.49a.146.146 0 0 0 -.01.024z" fill="#3f3d56"/><path d="m19.734 56.104.53.407s.153-.007.383-.015h.073a33.76 33.76 0 0 1 1.167-.024c.249-.012.498.002.744.041.264.093.733-1.514.733-1.514l-.53-.122-.176-.042-.122-.03-.432-.101-1.307.15-.918.592z" fill="#fbbebe"/><path d="m19.734 56.104.53.407s.153-.007.383-.015a.463.463 0 0 1 -.244-.22c-.342-.951 1.354-1.358 1.354-1.358l.79-.034.155-.007h.122l-.176-.042-.122-.03-.431-.101-1.308.15-.918.592z" fill="#000" opacity=".1"/><path d="m18.691 56.534c.32.297 2.417 0 2.504-.007-.159.018-.32.007-.475-.033a.524.524 0 0 1 -.366-.264c-.342-.953 1.355-1.358 1.355-1.358l.79-.035.153-.007 1.921-.083.093-.53s-.624.058-1.604.136c-.55.046-1.222.096-1.946.144-2.024.135-2.506 1.452-2.506 1.452s-.245.281.081.585z" fill="#3f3d56"/><path d="m42.202 33.539c.013.029.028.057.046.083l.467.686 1.214.123.013-.483.204-7.263s.84-4.87-.747-4.59c-1.588.28-.591 4.59-.591 4.59s-.181 2.186-.308 2.843c-.124.634-.677 3.214-.298 4.01zm-2.726 18.038.346.593.773 1.327s1.403.516 1.762.123c.196-.215.409-.963.558-1.593.122-.51.204-.94.204-.94z" fill="#fbbebe"/><path d="m39.476 51.577.346.593a.407.407 0 0 0 .058-.062c.391-.5 2.113-.107 3.035-.075.122-.51.204-.94.204-.94zm-17.589 4.893c.249-.012.498.002.744.04.264.094.733-1.513.733-1.513l-.706-.167 1.921-.083.093-.53s-.624.058-1.604.136a2.017 2.017 0 0 0 -.534.448l-.029.036c-.41.504-.56 1.153-.618 1.632zm15.145 21.056.538.358c.804-.146 1.538-.375 1.625-.735v-.017a6.213 6.213 0 0 1 -.285-.233zm-1.593.589c.71-.036 1.417-.112 2.118-.228a10.39 10.39 0 0 0 -1.274-.266c-.522-.057-.79.39-.844.494z" fill="#000" opacity=".1"/><path d="m21.946 57.088c0 .39 1.073.64 1.073.64l3.27 2.92s2.056.921 3.363 2.248 2.46.188 2.46.188c1.385-.343 5.375-5.184 5.375-5.184s.093 5.528.28 5.933c.187.406-.062 1.515-.171 1.984a5.528 5.528 0 0 0 -.078 1.186s-1.494 5.73-1.37 6.23c.125.5-.81 2.842-.81 2.842v1.951s3.66-.14 3.86-.968c.202-.826-.917-1.187-.917-1.187v-.203c.733-.375.871-2.95.871-2.95s1.091-3.185 1.246-3.716c.156-.53 0-1.328 0-1.328l.11-.686s.232-.47.232-.562c.031-.238.122-.464.266-.656.17-.203-.187-.687-.187-.687l.311-.812v-.89l.733-3.232s.764-3.763.499-4.997c-.265-1.233.311-1.857.311-1.857-1.25.657-1.88-.805-2.086-1.433-.053-.162-.079-.27-.079-.27s-1.716-.635-3.314-.483a3.806 3.806 0 0 0 -.952.202c-1.775.641-2.054 3.295-2.054 3.295l-1.573 2.405c-.81 2.139-2.024 2.357-2.024 2.357s-2.849-1.92-2.932-2.014c-.083-.095-1.168-.563-1.168-.563a1.235 1.235 0 0 0 -.56-.514c-.374-.157-.405-.735-.405-.735-.046-1.359-.84-1.47-.84-1.47-2.756-.23-2.74 2.626-2.74 3.016z" fill="#3f3d56"/><path d="m39.476 49.454h-1.68v-5.23h1.68z" fill="#f86d70"/><path d="m39.476 49.454h-1.68v-5.23h1.68zm2.724-15.926v.01c.013.03.029.058.047.084l.466.686 1.215.123.013-.483c-.379-.03-1.241-.134-1.74-.42z" fill="#000" opacity=".1"/><path d="m42.248 33.622s.062 2.747-.623 3.122-.952 2.327-.952 2.327 2.077 1.37 2.54 1.973 1.526 2.038 1.307 2.381c-.218.343.53 1.905.53 1.905s-1.37 2.81-1.059 3.873c.312 1.062.342 3.871.342 3.871h.593s-.187-2.31-.187-3.247c0-.938.622-4.278.622-4.278s.28-3.279 0-3.372c-.281-.093-1.93-1.405-2.055-2-.125-.594.872-6.125.872-6.125s-1.276-.055-1.93-.43z" fill="#f86d70"/><path d="m37.763 43.74c.057.381.196.747.407 1.07l1.15-.196s3.457-.782 4.17-.846a4.446 4.446 0 0 0 1.251-.357 5.535 5.535 0 0 0 -1.545-2.542l-.439-.408a7.346 7.346 0 0 0 -2.21-1.418c.05.043 3.676 3.148 2.882 3.756-.794.61-2.932-.873-2.932-.873l-2.43-2.095-.089-.076-.14.22c.071.029.141.062.209.1a3.585 3.585 0 0 1 1.71 2.131c.5 1.685-1.994 1.533-1.994 1.533z" fill="#000" opacity=".1"/><path d="m37.016 51.545s2.304 1.28 2.863.563c.122-.158.38-.227.701-.245-.052-.162-.078-.27-.078-.27s-1.716-.634-3.314-.482z" fill="#444053"/><path d="m38.076 39.757 2.52 2.174s2.128 1.487 2.931.873c.803-.613-2.884-3.757-2.884-3.757a7.45 7.45 0 0 1 2.21 1.414l.438.408c1.154 1.072 1.414 1.072 1.453 2.647.01.388-.122.946-.224 1.046-.374.368-.635 3.037-.578 3.35.058.312-.696 3.009-.452 3.758.245.75-3.054-.374-3.612.345s-2.862-.563-2.862-.563 1.276-3.28 1.588-3.497c.311-.218.685-1.905 0-2.686-.686-.78-.747-1.53-.747-1.53s2.493.154 1.993-1.53a3.533 3.533 0 0 0 -1.916-2.232z" fill="#e8e8f0"/><path d="m41.438 45.285s-.966 1.827-2.216 2.3c-.04.016-.08.03-.122.041-1.305.399 2.436-1.775 2.338-2.34z" fill="#000" opacity=".1"/><path d="m27.924 29.125s.467 1.187.84 1.592c.375.406 3.145 4.466 3.145 4.466l.235.49.201.418 1.775-.188.123-.718-.069-.083c-.178-.214-.664-.79-.99-1.041-.405-.312-1.215-1.342-1.215-1.342s-2.521-2.624-2.708-3.342-2.71-5.023-3.27-4.278c-.559.745 1.933 4.026 1.933 4.026z" fill="#fbbebe"/><g fill="#000"><path d="m33.075 48.436a1.388 1.388 0 0 0 -.627.09c-.44.215-.523.795-.767 1.22-.286.497-.83.805-1.392.919a3.1 3.1 0 0 1 -.337.046c.357.035.718.02 1.07-.046.561-.114 1.106-.422 1.392-.92.244-.424.327-1.004.767-1.218a.975.975 0 0 1 .366-.086zm4.339-9.398c0-.974.632-1.813 1.152-2.635s.958-1.86.546-2.742c-.352-.753-2.473-1.764-3.697-1.564 1.199.155 2.676.947 2.964 1.564.412.882-.026 1.92-.546 2.742s-1.154 1.661-1.152 2.635c0 1.257-.084 2.205-.429 3.42-.099.349.855.877.709 1.208-.496 1.102-.264 2.374-.344 3.58a1.492 1.492 0 0 1 -.167.676c-.244.403-.745.507-1.233.529h.427c.57 0 1.245-.044 1.54-.533.107-.209.165-.44.166-.676.08-1.206-.152-2.479.344-3.58.149-.33-.808-.858-.709-1.208.345-1.206.431-2.159.429-3.416z" opacity=".1"/><path d="m32.144 35.67.201.418 1.775-.187.123-.718-.069-.083c-.19.093-1.608.777-2.03.57z" opacity=".1"/><path d="m38.698 40.366s-.436-.686-.685-.5c-.25.187-.346-.562-.49-.437-.142.125-.559.473-.732-.013-.136-.388-1.611-2.837-2.21-3.822l-.25-.411s-1.681.843-2.086.562v.593l.342.032 1.833 3.43s.576.92.537 1.241.74 1.727.864 1.82c.125.093 1.466 1.655 1.466 1.655s.685 3.373.093 4.31c-.593.937-1.619 1.623-1.619 1.623s-.309.905-.264 1c.045.094-.359.5-.172.625.187.124.436.998.436.998s.872-1.405 1.344-1.623c.471-.218 1.075-3.092 1.075-3.092s.172-1.694.186-2.786c.013-1.093-.042-5.205.332-5.205z" opacity=".1"/></g><path d="m38.604 40.366s-.435-.686-.684-.5c-.25.187-.347-.562-.489-.437s-.558.473-.733-.013c-.137-.388-1.612-2.837-2.21-3.822l-.25-.411s-1.681.843-2.087.562v.593l.343.032 1.833 3.43s.578.92.537 1.241c-.04.321.733 1.727.864 1.82.13.093 1.466 1.655 1.466 1.655s.685 3.373.094 4.31c-.312.47-.692.892-1.127 1.252a2.186 2.186 0 0 0 -.733 1.178.467.467 0 0 0 -.022.196c.045.093-.36.5-.173.625s.439 1.002.439 1.002.872-1.405 1.344-1.623c.471-.218 1.076-3.092 1.076-3.092s.171-1.693.186-2.786c.014-1.093-.04-5.212.326-5.212z" fill="#f86d70"/><path d="m34.338 54.575s1.308.245 1.832.624c.524.378-1.992-.593-1.992-.593l.16-.03zm3.146 3.325s1.364 1.14 1.12 2.171c-.244 1.03-.875 3.623-.875 3.623zm-11.934-2.193s-1.923.21-1.799.46c.125.25 1.798-.23 1.798-.23v-.23zm14.764 9.485s.122.156-.591 0c-.714-.156-.187-.636-.187-.636zm-.244 2.155s-.978.156-1.502 0 1.502 0 1.502 0zm-2.011 8.431s-.171-.187-1.027.156c-.857.343-1.199.359-1.448.245-.25-.114 2.475-.4 2.475-.4zm.951-20.337-1.215 1.695s.654-1.484 1.214-1.695zm-2.36-15.575s-.053.563-.836.782c-.783.22-.932.397-.932.397m-.268-5.255s-1.034.736-2.112.58m2.898 15.16s.302.19 1.027-.641m6.498-8.167c.03-.152-.076-.293-.175-.411l-.203-.245a.942.942 0 0 0 -.133-.138c-.122-.094-.278-.122-.405-.207" fill="#000" opacity=".1"/><g fill="#6c63ff"><path d="m108.517.013s-10.285-.622-9.075 6.607c0 0-.245 1.278.913 1.858 0 0 .019-.536 1.056-.353.37.061.744.08 1.118.054a2.325 2.325 0 0 0 1.365-.566s2.892-1.199 4.016-5.937c0 0 .832-1.034.799-1.3l-1.736.744s.594 1.255.122 2.3c0 0-.056-2.255-.39-2.206-.067.01-.901.435-.901.435s1.02 2.187.25 3.777c0 0 .292-2.695-.569-3.62l-1.222.716s1.193 2.26.384 4.103c0 0 .208-2.827-.641-3.929l-1.107.866s1.12 2.228.437 3.757c0 0-.09-3.292-.677-3.541 0 0-.968.858-1.116 1.208 0 0 .767 1.617.29 2.47 0 0-.291-2.193-.53-2.205 0 0-.966 1.453-1.066 2.45 0 0 .041-1.481.832-2.588 0 0-.934.16-1.478.767 0 0 .15-1.026 1.716-1.116 0 0 .798-1.102 1.01-1.17 0 0-1.556-.13-2.5.29 0 0 .83-.97 2.786-.529l1.094-.895s-2.05-.28-2.92.03c0 0 1-.858 3.214-.234l1.19-.713s-1.748-.377-2.79-.245c0 0 1.1-.594 3.14.05l.854-.383s-1.28-.252-1.655-.293c-.375-.04-.395-.143-.395-.143a4.429 4.429 0 0 1 2.406.268s1.808-.669 1.776-.783zm-12.685 1.839s-4.643-.281-4.099 2.985c0 0-.109.578.412.84 0 0 .008-.245.477-.16.167.028.336.036.505.024.228-.015.445-.105.617-.256 0 0 1.307-.54 1.815-2.682 0 0 .375-.468.36-.588l-.784.336s.269.568.058 1.04c0 0-.026-1.02-.176-.995-.03 0-.408.196-.408.196s.462.989.113 1.708c0 0 .132-1.218-.257-1.635l-.553.323s.54 1.02.174 1.854c0 0 .094-1.278-.29-1.776l-.5.396s.506 1.007.199 1.697c0 0-.04-1.487-.307-1.599 0 0-.437.387-.505.547 0 0 .347.735.132 1.114 0 0-.132-.99-.244-.994 0 0-.435.656-.481 1.102a2.4 2.4 0 0 1 .376-1.17 1.313 1.313 0 0 0 -.668.347s.068-.463.775-.505c0 0 .367-.497.457-.528 0 0-.703-.059-1.13.131 0 0 .375-.438 1.26-.245l.489-.404s-.926-.123-1.32.013c0 0 .452-.387 1.453-.105l.537-.322s-.789-.172-1.26-.11c0 0 .497-.269 1.418.023l.385-.173s-.58-.115-.75-.132-.178-.065-.178-.065a1.997 1.997 0 0 1 1.088.122s.824-.302.81-.354z" opacity=".1"/><ellipse cx="112.048" cy="78.892" rx="4.912" ry="1"/><path d="m114.08 77.53c.224-.183.387-.43.467-.71.061-.28-.059-.612-.327-.72-.3-.116-.622.094-.865.304-.243.211-.523.452-.84.407.332-.303.482-.76.395-1.202a.505.505 0 0 0 -.11-.245c-.167-.179-.469-.103-.67.038-.635.449-.812 1.315-.815 2.093-.064-.28-.01-.574-.011-.858-.002-.284-.081-.612-.324-.763a.964.964 0 0 0 -.489-.115c-.284-.011-.603.018-.797.228-.245.26-.18.695.03.98.21.284.531.466.827.664.237.141.438.334.59.564a.51.51 0 0 1 .044.102h1.791a4.98 4.98 0 0 0 1.103-.767z"/></g></g></svg>