<svg height="70" viewBox="0 0 106 70" width="106" xmlns="http://www.w3.org/2000/svg" xmlns:xlink="http://www.w3.org/1999/xlink"><linearGradient id="a" x1=".109%" y1="50.012%" y2="50.012%"><stop offset="0" stop-color="#808080" stop-opacity=".25"/><stop offset=".54" stop-color="#808080" stop-opacity=".12"/><stop offset="1" stop-color="#808080" stop-opacity=".1"/></linearGradient><g fill="none" fill-rule="evenodd" transform="translate(-7 -10)"><path d="m67.881 23.497c-6.489-.225-12.67-2.314-18.571-4.6-5.902-2.286-11.75-4.819-18.082-6.03-4.074-.779-8.732-.889-12.015 1.289-3.158 2.1-4.18 5.715-4.729 9.073-.412 2.526-.654 5.184.477 7.549.785 1.642 2.18 3.022 3.144 4.595 3.355 5.472.984 12.22-2.653 17.563-1.705 2.507-3.684 4.9-5 7.566-1.317 2.666-1.925 5.725-.774 8.447 1.142 2.7 3.862 4.724 6.809 6.149 5.983 2.895 13.033 3.723 19.913 4.192 15.222 1.039 30.527.589 45.79.139 5.648-.167 11.322-.336 16.879-1.207 3.085-.484 6.272-1.251 8.512-3.105 2.843-2.353 3.548-6.338 1.643-9.288-3.197-4.949-12.032-6.178-14.269-11.49-1.23-2.923.033-6.179 1.82-8.891 3.834-5.816 10.26-10.919 10.6-17.567.232-4.567-2.858-9.139-7.634-11.3-5.007-2.264-11.95-1.98-15.642 1.769-3.806 3.86-10.49 5.345-16.219 5.147z" fill="#6c63ff" opacity=".1"/><g opacity=".6"><path d="m33.423 34.771s-2.757-4.869-6.907-6.272a8.496 8.496 0 0 1 -4.297-3.21 14.216 14.216 0 0 1 -1.27-2.277" stroke="#535461" stroke-width=".5"/><path d="m18.335 22.112c.472.458 2.675.931 2.675.931s-.54-2.181-1.014-2.639a1.195 1.195 0 0 0 -2.003.556c-.103.418.028.858.342 1.152zm1.245 3.95c.647.128 2.753-.669 2.753-.669s-1.642-1.538-2.289-1.666a1.195 1.195 0 0 0 -1.13.383 1.188 1.188 0 0 0 .666 1.952zm4.537 4.269c.623-.215 2.038-1.963 2.038-1.963s-2.196-.5-2.819-.286a1.19 1.19 0 1 0 .781 2.249zm4.163 2.462c.65-.107 2.341-1.592 2.341-1.592s-2.08-.864-2.73-.757a1.19 1.19 0 1 0 .388 2.349zm-4.11-9.107c0 .658-1.192 2.564-1.192 2.564s-1.194-1.9-1.194-2.563c0-.657.534-1.19 1.193-1.19s1.193.533 1.193 1.19zm4.832 2.94c-.2.628-1.905 2.091-1.905 2.091s-.568-2.175-.371-2.8a1.194 1.194 0 0 1 2.278.711zm4.302 3.5c-.087.652-1.525 2.383-1.525 2.383s-.928-2.048-.84-2.7a1.193 1.193 0 0 1 2.365.317z" fill="#6c63ff"/><path d="m18.335 22.112c.472.458 2.675.931 2.675.931s-.54-2.181-1.014-2.639a1.195 1.195 0 0 0 -2.003.556c-.103.418.028.858.342 1.152zm1.245 3.95c.647.128 2.753-.669 2.753-.669s-1.642-1.538-2.289-1.666a1.195 1.195 0 0 0 -1.13.383 1.188 1.188 0 0 0 .666 1.952zm4.537 4.269c.623-.215 2.038-1.963 2.038-1.963s-2.196-.5-2.819-.286a1.19 1.19 0 1 0 .781 2.249zm4.163 2.462c.65-.107 2.341-1.592 2.341-1.592s-2.08-.864-2.73-.757a1.19 1.19 0 1 0 .388 2.349zm-4.11-9.107c0 .658-1.192 2.564-1.192 2.564s-1.194-1.9-1.194-2.563c0-.657.534-1.19 1.193-1.19s1.193.533 1.193 1.19zm4.832 2.94c-.2.628-1.905 2.091-1.905 2.091s-.568-2.175-.371-2.8a1.194 1.194 0 0 1 2.278.711zm4.302 3.5c-.087.652-1.525 2.383-1.525 2.383s-.928-2.048-.84-2.7a1.193 1.193 0 0 1 2.365.317z" fill="#000" opacity=".25"/><path d="m33.264 34.675s-.541-5.566-3.766-8.526a8.47 8.47 0 0 1 -2.629-4.673 14.188 14.188 0 0 1 -.238-2.595" stroke="#535461" stroke-width=".5"/><path d="m24.613 17.003c.247.61 2.068 1.933 2.068 1.933s.393-2.213.146-2.823a1.193 1.193 0 0 0 -2.214.89zm-.463 4.113c.538.378 2.788.5 2.788.5s-.877-2.07-1.416-2.448a1.195 1.195 0 0 0 -1.663.289c-.379.538-.249 1.28.29 1.658v.001zm2.41 5.739c.657.055 2.663-.972 2.663-.972s-1.805-1.345-2.462-1.4a1.191 1.191 0 0 0 -.2 2.372zm2.806 3.932c.639.165 2.788-.509 2.788-.509s-1.55-1.63-2.188-1.8a1.195 1.195 0 0 0 -1.195.285 1.188 1.188 0 0 0 .593 2.015zm-.056-9.986c-.267.6-2.132 1.862-2.132 1.862s-.318-2.224-.051-2.825a1.195 1.195 0 0 1 1.574-.607c.603.266.875.969.609 1.57zm3.222 4.641c-.435.493-2.593 1.14-2.593 1.14s.364-2.217.803-2.711a1.196 1.196 0 0 1 1.684-.109c.495.434.544 1.186.11 1.68zm2.511 4.938c-.345.56-2.361 1.562-2.361 1.562s-.017-2.247.328-2.808a1.195 1.195 0 0 1 1.641-.391c.562.344.737 1.077.392 1.637z" fill="#6c63ff"/></g><g stroke="#33313f" stroke-width=".5"><g fill="#fff"><path d="m22.295 26.786s14.74.6 16.745 0c0 0-1.103 24.6-.702 25.4 0 0-16.344.9-17.547 0s1.504-25.4 1.504-25.4zm2.206 4.6s6.818 10.8 9.124 11.8m0-11.8s-6.517 8.5-7.52 11.4"/><path d="m33.024 47.286h-7.921c-.602 0-.602 2.8-.602 2.8h8.523zm16.945-20.5s14.137-.7 16.744 0c0 0-1.103 24.6-.702 25.4 0 0-18.064 1.409-17.546 0 1.103-3 1.504-25.4 1.504-25.4zm5.509 1.876s3.147 4.985 4.211 5.446m.001-5.446s-3.009 3.923-3.472 5.262"/><path d="m63.28 37.286h-10.628c-.802 0-.802 2.8-.802 2.8h11.43zm-1.45 8.9h-7.922c-.601 0-.601 2.8-.601 2.8h8.522v-2.8zm1.45-4.8c.807 0-9.688.9-10.628 0-.496-.473-.802 2.8-.802 2.8h11.43z"/><path d="m56.537 47.536.602.6 1.103-1.5m18.698-19.65s14.038 1.7 16.745 0c0 0-1.103 24.6-.702 25.4 0 0-18.63 1.041-17.547 0 2.707-2.6 1.504-25.4 1.504-25.4zm1.95 4.35s2.023 3.2 2.708 3.5m0-3.5s-1.934 2.526-2.227 3.382"/><path d="m90.452 37.936h-10.628c-.802 0-.802 1.482-.802 1.482h11.43zm-5.794 4.4h5.535c.803 0 .803 1.482.803 1.482h.024m-.568-3.713c.807 0-9.688.476-10.628 0-.495-.25-.802 1.481-.802 1.481h11.43zm-13.428-11.243s15.562 1.147 16.562.385m-1.958-1.094c.213-.045.431.019.647.052s.46.029.617-.121m-1.371.463c.45.079.906.104 1.362.075m-1.364.484c.385-.065.774-.109 1.164-.13m-14.783-.614c.188.087.394.128.601.121.131.018.264-.01.375-.081.132-.106.143-.3.143-.469a.351.351 0 0 0 -.022-.151.3.3 0 0 0 -.108-.112c-.247-.172-.707-.242-.997-.125-.397.16-.333.632.008.817zm4.437 2.348c-.059.74.119 1.475.238 2.208.15.925.21 1.863.179 2.8a51.592 51.592 0 0 1 -4.753.069c.147.005.11-3.344.124-3.652.018-.394-.066-1.072.392-1.22.482-.157 1.16-.06 1.665-.084.718-.033 1.436-.074 2.155-.121z"/></g><path d="m41.346 38.286s3.91-.2 4.612 0m0-2.1s1.705 1.7 1.705 2.1-2.206 1.8-2.206 1.8m22.961-1.8s3.91-.2 4.612 0"/><path d="m73.03 36.186s1.704 1.7 1.704 2.1-2.205 1.8-2.205 1.8"/></g><g fill="#6c63ff"><ellipse cx="45.352" cy="12.363" opacity=".1" rx="2.169" ry="2.163"/><ellipse cx="78.351" cy="15.349" opacity=".1" rx="2.169" ry="2.163"/><ellipse cx="101.528" cy="47.393" opacity=".1" rx="2.169" ry="2.163"/><ellipse cx="109.285" cy="37.75" opacity=".1" rx="3.635" ry="3.625"/><ellipse cx="104.473" cy="55.342" opacity=".1" rx="3.635" ry="3.625"/><ellipse cx="11.155" cy="44.007" opacity=".1" rx="3.635" ry="3.625"/></g><path d="m94.56 48.876a1.804 1.804 0 0 0 -.045-.359c-.091-.337-.294-.746-.63-.848a5.305 5.305 0 0 1 -.995-.42c-.062-1.072.186-2.169-.084-3.208-.1-.38-.264-.744-.31-1.134-.055-.483.079-1-.115-1.446-.152-.351-.487-.6-.848-.73s-.748-.164-1.13-.2c-.481-.04-2.04-.224-2.582.206a.536.536 0 0 0 -.133.152v.008a.375.375 0 0 0 -.043.139.457.457 0 0 0 0 .078v.103c.007.089.02.18.02.269a.583.583 0 0 1 -.011.132.927.927 0 0 1 -.167.323l-.018.026-.033.048-.026.041-.022.036c-.01.017-.018.034-.027.052l-.015.028a.553.553 0 0 0 -.03.35c.027.112.073.22.136.316.025.041.053.081.081.121s.047.063.07.094a1.995 1.995 0 0 0 -.021.281c0 .634.292 1.234.793 1.625.039.422.034.848-.013 1.269-.01.089-.02.177-.032.265l-.034.22c-.147.02-.297.009-.439-.034a2.05 2.05 0 0 0 -.2-.077c-.293-.072-.59.218-.879.13 0 .013-.009.026-.013.04a.402.402 0 0 0 -.2-.059c-.17-.008-.311-.132-.435-.249l-.381-.359a.385.385 0 0 1 -.067-.074.492.492 0 0 1 -.046-.123 1.421 1.421 0 0 0 -.37-.529.25.25 0 0 0 -.11-.079.136.136 0 0 0 -.05 0c-.01-.014-.02-.028-.032-.041a1.316 1.316 0 0 0 -.084-.083c-.182-.168-.2-.312-.36-.5a4.716 4.716 0 0 1 -.373-.565 5.682 5.682 0 0 0 -.054-.322 4.1 4.1 0 0 0 -.219-.729l.137-.15v-.149l.245-.285-.017-.015.3-.282-.3-.011-.14.194-.011-.01-.251.25-.176.02-.023.024c-.145-.216-.3-.334-.439-.306-.233.048-.35.5-.313 1.091l-.695.725-.078.082-.359.459.282.27.432-.4.07-.075.43-.465c0 .015.007.03.01.045a1.205 1.205 0 0 0 -.022.216c0 .085.079.146.119.222.067.101.101.22.1.341 0 .042-.018.083-.019.126a.476.476 0 0 0 .093.259l.502.84c.034.059.07.118.1.176a.04.04 0 0 1 0 .009.425.425 0 0 0 .134.153 1.834 1.834 0 0 0 .223.718c.134.22.293.426.472.612l.24.267c.234.263.47.525.726.768a.97.97 0 0 0 .326.226c.121.05.26.03.364-.052v.371a.266.266 0 0 1 .175.114c.027.07.02.15-.017.216-.21.539-.422 1.082-.742 1.566.225.132.434.29.622.472.122.135.231.282.324.438.008.073.016.147.02.22.075 1.192-.388 2.375-.802 3.511-.118.321-.25.659-.238.993a2.068 2.068 0 0 0 -.226.162c.082.213.05.4.042.633a1.122 1.122 0 0 1 -.084.4c-.04.089-.1.172-.143.257-.26.457-.318 1-.37 1.521-.031.316.092.7-.052.982-.247.485-.467 1-.507 1.538a1.602 1.602 0 0 1 -.045.36c-.031.1-.087.185-.115.283a1.203 1.203 0 0 0 -.02.4c.02.48-.052.958-.21 1.411-.126.358-.264.74-.165 1.107-.242.253-.392.58-.424.928-.003.09-.014.178-.033.265-.031.09-.071.175-.12.256a2.235 2.235 0 0 0 -.274 1.2c-.3.406-.45.909-.539 1.408-.09.499-.13 1.007-.244 1.5-.151.653-.427 1.312-.482 1.979-.325.208-.464.609-.527.988s-.072.776-.23 1.127c-.083.182-.201.345-.28.53a2.38 2.38 0 0 0 -.121.457c-.048.245-.09.516-.03.75-.085.09-.184.166-.294.224.015-.062.03-.125.04-.188-.26.235-.728.153-.935.434a.423.423 0 0 0 .1.579.82.82 0 0 0 .209.089c.496.159 1.016.321 1.53.236a.465.465 0 0 0 .174-.056.537.537 0 0 0 .162-.186l.231-.366c.185.055.373.1.563.132.018.16.031.32.039.48.1.02.234.025.282-.067a.244.244 0 0 0 .018-.111c0-.072.009-.166.016-.262h.02c.306.012.61-.05.887-.18-.108-.885.246-1.751.553-2.589.324-.882.602-1.781.88-2.679.201-.631.424-1.244.62-1.876l.744-2.4c.11-.352.218-.7.343-1.05.262-.708.572-1.398.929-2.064.1-.188.2-.375.284-.572.1-.239.171-.489.25-.735.176-.507.386-1.001.63-1.479l.019-.037c.081.331.163.668.217 1 .073.408.08.826.017 1.236-.049.279-.14.555-.128.837.015.392.224.746.327 1.124.067.282.104.57.113.86.027.449.273.954.1 1.371-.535 1.321-.275 2.813-.582 4.2-.156.712-.639 1.382-.601 2.11.026.517.072 1.032.136 1.546.011.157.048.311.11.456.04.077.086.152.137.223-.044.018-.082.063-.113.158a.6.6 0 0 0 .223.7.97.97 0 0 0 .289.1c.136.038.277.058.419.058a.828.828 0 0 0 .131-.017c.155.065.314.122.475.17 0 .041.004.082.012.123 0 .044.02.085.054.113a.145.145 0 0 0 .08.015h.544v-.136a.445.445 0 0 0 .346-.113.51.51 0 0 0 .1-.207l.444-1.507c.067-.212.12-.43.155-.649.063-.354.083-.714.06-1.072-.193-1.843.232-3.692.093-5.54a13.181 13.181 0 0 1 .17-3.323c.046-.248.101-.5.121-.747.043-.466-.01-.937.022-1.4.012-.162.034-.323.054-.484.144-1 .222-2.007.235-3.016a9.19 9.19 0 0 0 -.061-1 .59.59 0 0 0 .273-.16c.09-.117.067-.279.066-.427 0-.354.15-.689.268-1.023.154-.459.281-.926.38-1.4a4.91 4.91 0 0 0 .169-1.175c0-.04 0-.08-.006-.121a.3.3 0 0 0 .091-.1.56.56 0 0 0 .048-.185l.11-.767.08-.55.318-2.218.083-.578.082-.573c.01-.068.02-.136.027-.205.249-.395.014-.94-.011-1.404zm-2.656 8.308c-.12-.279-.23-.566-.2-.869h-.01a.452.452 0 0 0 -.015-.282c-.03-.074-.084-.136-.117-.208a.761.761 0 0 1 -.054-.281 7.657 7.657 0 0 1 .142-1.813l.041-.212a.537.537 0 0 0 .114-.088.819.819 0 0 0 .13-.2c.112-.227.216-.458.312-.693.031-.077.076-.164.153-.183-.016.585.044 1.182-.2 1.71-.046.085-.08.176-.1.27-.023.148.04.3.018.448-.011.076-.045.148-.059.223a.22.22 0 0 0 .06.212c.012.01.027.018.042.023-.006.04-.011.081-.014.12-.01.082-.012.159-.017.207-.024.244-.033.49-.028.735 0 .265.01.531.006.8a.529.529 0 0 1 -.039.227.39.39 0 0 1 -.076.1c-.028-.089-.06-.168-.089-.246z" fill="url(#a)" fill-rule="nonzero"/><path d="m84.325 42.614.337-.313-.301-.011-.157.24z" fill="#33313f"/><path d="m81.901 44.806.357-.457.08-.082 1.092-1.141.372-.389.175-.02.25-.249.148.129-.244.284.005.149-.38.412-1.073 1.161-.07.074-.43.398z" fill="#65617d"/><path d="m82.338 44.267 1.092-1.141.325.316-1.072 1.161z" fill="#33313f"/><ellipse cx="83.664" cy="44.017" fill="#fbbebe" rx="1" ry="1.597" transform="matrix(.97964538 -.20073597 .20073597 .97964538 -7.132846 17.690324)"/><path d="m88.657 77.724a.6.6 0 0 0 .222.694c.09.048.188.082.289.1.135.038.276.058.417.058.174-.009.34-.076.513-.1a.084.084 0 0 1 .06.009.087.087 0 0 1 .022.069c.002.099.01.197.022.295a.113.113 0 0 0 .133.127h.542a5.187 5.187 0 0 0 -.157-1.414.307.307 0 0 0 -.04-.1.32.32 0 0 0 -.173-.1.977.977 0 0 0 -.42-.073c-.175.022-.323.136-.472.23-.15.094-.353.177-.535.128-.181-.049-.33-.201-.423.077z" fill="#3f3d56"/><path d="m80.674 77.285c-.152.163-.34.29-.547.371l-.094.045a.05.05 0 0 0 -.03.025.054.054 0 0 0 .01.045.652.652 0 0 0 .735.267.394.394 0 0 0 .163-.084.535.535 0 0 0 .124-.323.673.673 0 0 0 -.015-.368c-.136-.314-.187-.172-.346.022z" fill="#fbbebe"/><path d="m82.762 78.517a.231.231 0 0 1 -.018.111c-.046.092-.179.086-.281.067a6.708 6.708 0 0 0 -.122-1.011c-.195-.009-.336.176-.44.34l-.268.426a.544.544 0 0 1 -.162.185.467.467 0 0 1 -.172.056c-.514.084-1.032-.077-1.527-.236a.83.83 0 0 1 -.208-.088.421.421 0 0 1 -.1-.578c.207-.28.674-.2.931-.432-.026.163-.07.323-.132.477.347-.052.579-.368.858-.579a.51.51 0 0 1 .245-.117.543.543 0 0 1 .2.022c.322.08.623.228.883.433.105.083.27.2.316.328.049.153-.004.433-.003.596z" fill="#3f3d56"/><ellipse cx="89.659" cy="43.456" fill="#fbbebe" rx="2.071" ry="2.066"/><path d="m93.74 55.655a4.87 4.87 0 0 1 -.169 1.171c-.097.474-.223.941-.378 1.4-.119.333-.27.667-.268 1.02 0 .147.024.309-.065.426a.636.636 0 0 1 -.294.167.365.365 0 0 0 -.246.218 1.528 1.528 0 0 1 -.21-.457c-.179-.55-.346-1.102-.5-1.657a.215.215 0 0 1 .012-.2.239.239 0 0 1 .088-.049.903.903 0 0 0 .277-.179.408.408 0 0 0 .093-.118.529.529 0 0 0 .039-.227c0-.264 0-.529-.006-.793-.005-.245.004-.49.027-.733 0-.049.009-.125.017-.207.015-.158.045-.339.131-.4.126-.086.507.029.653.048.248.035.496.075.743.122.035.147.054.297.056.448zm-8.365-9.885c-.08.16-.273.236-.421.338l-.509.348a.343.343 0 0 1 -.25.086.33.33 0 0 1 -.188-.175l-.006-.009-.1-.175-.502-.838a.485.485 0 0 1 -.093-.259c0-.042.015-.083.02-.125a.618.618 0 0 0 -.1-.34c-.04-.076-.121-.137-.118-.221a.786.786 0 0 1 .056-.324.66.66 0 0 1 .218-.234c.047-.034.1-.066.146-.1a.29.29 0 0 1 .088-.039c.082-.017.164.051.249.054.363.242.501.7.787 1.031.16.187.176.331.358.5a.93.93 0 0 1 .083.083.534.534 0 0 1 .091.13c.032.085.233.187.19.269z" fill="#3f3d56"/><path d="m88.93 45.528c.15.315.266.661.223 1.007a.63.63 0 0 1 -.087.265c-.144.221-.447.26-.711.274a.42.42 0 0 0 -.308.1.277.277 0 0 0 .019.342c.084.09.19.16.307.2.417.184.866.335 1.32.292.21-.02.415-.08.625-.111a6.3 6.3 0 0 1 .684-.035c.272-.01.544-.037.816-.064l.719-.071c.04 0 .077-.013.107-.039.054-.062-.015-.153-.08-.2-.383-.283-.87-.476-1.086-.9-.1-.2-.132-.437-.207-.654-.074-.217-.192-.41-.237-.631a4.147 4.147 0 0 1 -.033-.581.773.773 0 0 0 -.2-.532c-.143-.133-.35-.167-.546-.176-.48-.02-.989.094-1.33.431-.091.091-.168.195-.264.282-.095.087-.221.106-.159.214s.183.174.25.27c.068.1.127.207.178.317z" fill="#fbbebe"/><path d="m93.015 48.432c-.126.77-.33 1.525-.61 2.253a8.313 8.313 0 0 0 -.36 1.011c-.079.31-.063.642-.135.953-.088.386-.176.775-.248 1.165a7.611 7.611 0 0 0 -.142 1.808c0 .096.019.19.054.28.033.072.087.134.117.207a.492.492 0 0 1 -.027.4 1.17 1.17 0 0 1 -.206.313c-.936.278-1.934.186-2.908.245-.902.055-1.805.239-2.69.085-.1-.4.067-.818.212-1.208.415-1.133.876-2.313.802-3.5a3.603 3.603 0 0 0 -.048-.412c-.145-.841.013-1.712.266-2.528.159-.507.152-1.049.115-1.578a2.863 2.863 0 0 1 -.007-.516.92.92 0 0 1 .188-.483l.015-.021c.011-.017.044-.007.074 0a.065.065 0 0 0 .05 0 .023.023 0 0 1 .011-.007.028.028 0 0 1 .03 0c.023.015.035.062.085.071.074.011.148.019.223.022.09.003.18.015.267.038h.012c.13.022.264.01.39-.033.082-.02.162-.052.238-.092.061-.025.124-.046.188-.063.092-.056.072-.314.091-.419.01-.106.036-.21.075-.31a.528.528 0 0 1 .429-.249c.173-.005.346.01.515.046.373.053.756.043 1.124.129.185.043.385.109.556.025.045.01.052.051.052.1a.546.546 0 0 1 -.028.137c-.063.276.154.529.354.73.086.094.188.174.3.235.1.046.2.065.301.115a.53.53 0 0 1 .2.183.74.74 0 0 1 .115.291c.02.193.006.388-.04.577z" fill="#3f3d56"/><path d="m93.015 48.432c-.126.77-.33 1.525-.61 2.253a8.313 8.313 0 0 0 -.36 1.011c-.079.31-.063.642-.135.953-.088.386-.176.775-.248 1.165a1.557 1.557 0 0 1 -.457.159c-.245.029-.492.02-.735-.024l-1.434-.187c-.571-.076-1.18-.169-1.604-.555-.235-.212-.39-.492-.558-.763a3.603 3.603 0 0 0 -.048-.412c-.145-.841.013-1.712.266-2.528.159-.507.152-1.049.115-1.578a2.863 2.863 0 0 1 -.007-.516.92.92 0 0 1 .188-.483.765.765 0 0 1 .15-.028h.03c.033 0 .067.004.1.012.067.017.13.053.195.077h.012c.086.028.177.04.267.038.132 0 .269-.022.401-.03a.74.74 0 0 1 .475.084c.094.075.182.156.265.242.101.078.214.139.335.181a3.55 3.55 0 0 0 2.668-.057.535.535 0 0 1 .268-.067c.07.013.135.041.193.081.06.035.12.069.18.1a.74.74 0 0 1 .114.291c.024.194.015.39-.026.581z" fill="#000" opacity=".1"/><path d="m93.887 47.77a5.276 5.276 0 0 1 -1.142-.5.508.508 0 0 0 -.193-.082.525.525 0 0 0 -.268.068 3.555 3.555 0 0 1 -2.668.056 1.167 1.167 0 0 1 -.335-.181 2.86 2.86 0 0 0 -.264-.242c-.33-.213-.786.038-1.156-.1a2.033 2.033 0 0 0 -.195-.077c-.292-.072-.589.217-.877.13a4.733 4.733 0 0 0 -.234.892c-.041.35-.063.7-.065 1.052-.006.21-.011.421 0 .632a.266.266 0 0 1 .175.114c.026.07.02.149-.017.214-.21.538-.421 1.08-.74 1.562.225.132.433.29.62.472.352.37.523.888.902 1.23.427.386 1.037.479 1.604.556l1.432.196c.243.045.49.053.735.024.136-.025.268-.067.393-.127a.702.702 0 0 0 .219-.144.823.823 0 0 0 .13-.2c.111-.226.216-.457.31-.691.034-.083.084-.181.174-.187.53-.478 1.033-.968 1.564-1.446.213-.176.405-.378.57-.6.265-.389.024-.941 0-1.41a1.723 1.723 0 0 0 -.044-.358c-.093-.343-.296-.751-.63-.853z" fill="#6c63ff"/><path d="m85.375 45.77c-.08.16-.273.236-.421.338l-.509.348a.343.343 0 0 1 -.25.086.33.33 0 0 1 -.188-.175v-.072a.663.663 0 0 1 .032-.239.754.754 0 0 1 .225-.288 1.82 1.82 0 0 1 .658-.4.221.221 0 0 1 .122-.012c.015.004.03.01.043.019a.534.534 0 0 1 .091.13c.038.081.239.183.197.265z" fill="#000" opacity=".1"/><path d="m86.572 46.827c-.17-.008-.31-.132-.433-.249l-.381-.358a.36.36 0 0 1 -.067-.074.525.525 0 0 1 -.045-.122 1.434 1.434 0 0 0 -.369-.528.26.26 0 0 0 -.11-.079.22.22 0 0 0 -.121.013 1.82 1.82 0 0 0 -.659.4.74.74 0 0 0 -.225.288.663.663 0 0 0 -.032.239 1.832 1.832 0 0 0 .232.878c.135.22.293.424.471.61l.239.267c.234.261.47.523.725.765.09.097.201.174.324.226.126.051.27.028.373-.061a.523.523 0 0 0 .106-.19c.155-.4.3-.815.31-1.246a4.45 4.45 0 0 0 -.021-.517c-.017-.183-.146-.254-.317-.262z" fill="#6c63ff"/><path d="m92.648 60.827a23.046 23.046 0 0 1 -.214 3.007c-.02.16-.042.321-.053.483-.033.466.02.936-.023 1.4-.024.25-.075.5-.12.745a13.157 13.157 0 0 0 -.17 3.314c.138 1.843-.285 3.687-.094 5.525.024.357.004.716-.058 1.069-.036.22-.088.435-.155.647l-.442 1.5a.524.524 0 0 1 -.1.207.473.473 0 0 1 -.376.112c-.578-.019-1.122-.267-1.647-.511a.54.54 0 0 1 -.166-.1c-.109-.113-.1-.292-.148-.44s-.18-.289-.254-.443a1.49 1.49 0 0 1 -.109-.454 18.65 18.65 0 0 1 -.136-1.542c-.037-.726.443-1.394.601-2.1.306-1.388.047-2.876.582-4.194.167-.415-.076-.919-.1-1.367a4.244 4.244 0 0 0 -.113-.858c-.1-.377-.31-.73-.326-1.12-.012-.282.08-.557.128-.836a3.79 3.79 0 0 0 -.017-1.232 11.984 11.984 0 0 0 -.217-1l-.018.037c-.244.476-.454.97-.629 1.475-.079.245-.15.494-.25.733-.083.2-.183.382-.282.57a16.252 16.252 0 0 0 -.927 2.058c-.124.346-.232.7-.341 1.047l-.742 2.4c-.196.631-.422 1.241-.617 1.871a53.33 53.33 0 0 1 -.878 2.671c-.307.836-.66 1.7-.553 2.583-.276.13-.58.19-.884.179a5.203 5.203 0 0 1 -1.504-.365 1.154 1.154 0 0 1 -.519-.308c-.223-.271-.167-.668-.1-1.012.025-.156.066-.308.122-.456.075-.185.195-.348.277-.529.159-.35.169-.745.23-1.124.063-.379.201-.778.526-.985.054-.665.33-1.323.482-1.973.114-.493.152-1 .241-1.5.09-.5.237-1 .54-1.4-.024-.417.07-.833.271-1.2.05-.08.09-.166.12-.255.019-.087.03-.175.033-.264.032-.347.181-.673.422-.926-.1-.366.04-.746.164-1.1.159-.452.23-.929.21-1.407a1.229 1.229 0 0 1 .02-.4c.029-.1.084-.185.115-.282a1.48 1.48 0 0 0 .045-.359c.04-.54.259-1.05.502-1.533.143-.282.02-.665.052-.98.052-.522.11-1.061.368-1.517.052-.083.1-.169.143-.257a1.09 1.09 0 0 0 .083-.4c.01-.228.041-.419-.04-.631.536-.446 1.269-.57 1.965-.595.697-.025 1.404.033 2.087-.116.2-.044.401-.107.613-.137.48-.07.967.04 1.441.148-.033.3.078.588.196.867a9.286 9.286 0 0 1 .743 3.56z" fill="#33313f"/><path d="m90.287 61.053-1.151 2.584a11.984 11.984 0 0 0 -.217-1l-.018.037.005-.054.628-1.378zm3.453-5.398a.455.455 0 0 1 -.229.085 1.146 1.146 0 0 1 -.376-.051l-.897-.227a.38.38 0 0 1 -.082-.028c.015-.158.045-.339.131-.4.126-.086.507.029.653.048.248.035.496.075.743.122.036.148.055.299.057.451z" fill="#000" opacity=".1"/><path d="m94.502 49.705c.02.083.047.165.062.249.027.206.02.414-.02.618l-.082.572-.082.576-.318 2.213-.08.548-.109.765a.58.58 0 0 1 -.048.184.387.387 0 0 1 -.315.185 1.144 1.144 0 0 1 -.375-.051l-.897-.226a.284.284 0 0 1 -.11-.045.218.218 0 0 1 -.059-.211c.013-.076.047-.147.059-.223.022-.148-.042-.3-.018-.447a1.04 1.04 0 0 1 .1-.27c.3-.663.126-1.436.228-2.156a3.26 3.26 0 0 1 .686-1.545c.224-.28.482-.533.767-.751.114-.087.292-.267.432-.3.188-.038.15.189.179.315z" fill="#6c63ff"/><path d="m87.674 41.091c-.066.209.037.44-.01.655-.052.236-.274.4-.337.637-.1.361.206.69.43.99.832 1.113.723 2.655.438 4.015a20.58 20.58 0 0 1 -.947 3.2c-.125.322-.264.651-.51.893.462-.132.95-.265 1.414-.137.586.162 1.09.729 1.684.6.357-.08.607-.4.929-.57.602-.323 1.325-.12 1.997-.017a.769.769 0 0 0 .436-.022.73.73 0 0 0 .265-.242c.3-.383.478-.846.514-1.33a1.697 1.697 0 0 0 -.492-1.313c-.141-.134-.312-.242-.42-.4a1.224 1.224 0 0 1 -.166-.606c-.08-1.1.188-2.222-.088-3.286-.1-.379-.264-.742-.308-1.131-.056-.482.077-1-.116-1.442-.152-.35-.486-.6-.845-.727a4.242 4.242 0 0 0 -1.127-.2c-.55-.048-2.512-.282-2.741.433z" fill="#33313f"/><path d="m88.194 47.388a20.648 20.648 0 0 1 -.942 3.187c.069-.137.128-.281.183-.424.402-1.04.719-2.11.948-3.2.284-1.359.394-2.9-.439-4.015-.2-.265-.458-.553-.448-.866a1.047 1.047 0 0 0 -.17.315c-.1.361.206.69.43.99.833 1.111.724 2.653.438 4.013zm-.518-5.744a1 1 0 0 0 .176-.337 1.71 1.71 0 0 0 -.012-.446.482.482 0 0 0 -.166.23c-.056.177.009.371.002.553zm5.976 9.008a.735.735 0 0 1 -.266.243.765.765 0 0 1 -.435.022c-.672-.1-1.404-.307-1.998.017-.321.174-.572.49-.929.569-.594.132-1.103-.434-1.684-.6-.415-.115-.852-.02-1.27.1a1.749 1.749 0 0 1 -.332.479c.462-.132.95-.265 1.414-.137.586.162 1.09.729 1.684.6.356-.08.607-.4.929-.57.602-.323 1.325-.12 1.997-.017a.769.769 0 0 0 .436-.022.73.73 0 0 0 .265-.242c.18-.24.321-.507.415-.792a2.94 2.94 0 0 1 -.226.35z" fill="#000" opacity=".1"/><path d="m99.453 67.754s.595.776-.274 1.947c-.868 1.171-1.586 2.161-1.296 2.889 0 0 1.311-2.175 2.378-2.2s.366-1.328-.808-2.636z" fill="#6c63ff"/><path d="m99.453 67.754a.94.94 0 0 1 .121.244c1.042 1.22 1.597 2.358.596 2.387-.933.027-2.05 1.689-2.32 2.109.01.033.02.064.033.1 0 0 1.311-2.175 2.378-2.2s.366-1.332-.808-2.64z" fill="#000" opacity=".1"/><path d="m100.559 68.743c0 .273-.031.494-.07.494-.037 0-.067-.221-.067-.494s.038-.145.076-.145.061-.128.061.145z" fill="#ffd037"/><path d="m100.938 69.069c-.24.13-.45.209-.468.176s.162-.166.4-.3c.24-.134.147-.035.165 0s.144-.007-.097.124z" fill="#ffd037"/><path d="m96.316 67.754s-.595.776.274 1.947c.87 1.171 1.586 2.159 1.296 2.889 0 0-1.312-2.175-2.378-2.2-1.067-.025-.37-1.328.808-2.636z" fill="#6c63ff"/><path d="m96.316 67.754a.94.94 0 0 0 -.122.244c-1.041 1.22-1.596 2.358-.595 2.387.932.027 2.051 1.689 2.319 2.109l-.032.1s-1.312-2.175-2.378-2.2c-1.067-.025-.37-1.332.808-2.64z" fill="#000" opacity=".1"/><path d="m95.213 68.743c0 .273.03.494.068.494s.068-.221.068-.494-.038-.145-.076-.145-.06-.128-.06.145z" fill="#ffd037"/><path d="m94.828 69.069c.24.13.45.209.468.176s-.162-.166-.401-.3-.145-.035-.165 0c-.019.035-.142-.007.098.124z" fill="#ffd037"/><path d="m101.082 71.545-.029.242-.042.342-.017.142-.042.343-.018.142-.041.342-.476 3.89c-.043.347-.612.618-1.298.618h-2.472c-.686 0-1.255-.271-1.297-.618l-.476-3.89-.042-.342-.017-.142-.043-.343-.017-.142-.042-.342-.03-.242c-.024-.2.284-.363.672-.363h5.056c.388 0 .696.166.671.363z" fill="#444053"/><path d="m101.053 71.787-.042.341h-6.256l-.042-.341zm-.059.484-.042.342h-6.137l-.042-.342zm-.06.485-.041.342h-6.02l-.041-.342z" fill="#9d9cb5"/></g></svg>